<svg xmlns="http://www.w3.org/2000/svg" xmlns:xlink="http://www.w3.org/1999/xlink" width="693" zoomAndPan="magnify" viewBox="0 0 519.75 161.999997" height="216" preserveAspectRatio="xMidYMid meet" version="1.0"><defs><clipPath id="0aadb60fcd"><path d="M 0 120 L 519.5 120 L 519.5 161.960938 L 0 161.960938 Z M 0 120 " clip-rule="nonzero"/></clipPath><clipPath id="b6dcc59df3"><path d="M 0 60 L 519.5 60 L 519.5 102 L 0 102 Z M 0 60 " clip-rule="nonzero"/></clipPath><clipPath id="45eb2eef6a"><path d="M 0 0.0390625 L 519.5 0.0390625 L 519.5 41 L 0 41 Z M 0 0.0390625 " clip-rule="nonzero"/></clipPath><clipPath id="2318b546cf"><path d="M 492.289062 22.160156 L 495.261719 22.160156 L 495.261719 24.652344 L 492.289062 24.652344 Z M 492.289062 22.160156 " clip-rule="nonzero"/></clipPath><clipPath id="c761a893a8"><path d="M 495.257812 22.992188 C 493.9375 25.089844 492.695312 24.703125 492.386719 24.3125 C 492.152344 23.847656 492.386719 22.605469 492.773438 22.292969 C 493.160156 21.980469 494.871094 22.371094 494.871094 22.371094 " clip-rule="nonzero"/></clipPath></defs><g clip-path="url(#0aadb60fcd)"><path fill="#f0ead8" d="M 511.808594 161.722656 C 495.804688 161.722656 487.585938 152.910156 480.980469 145.828125 C 474.351562 138.71875 470.175781 134.699219 461.402344 134.699219 C 452.632812 134.699219 448.457031 138.71875 441.828125 145.828125 C 435.226562 152.910156 427.007812 161.722656 411.003906 161.722656 C 395 161.722656 386.78125 152.910156 380.179688 145.828125 C 373.550781 138.71875 369.371094 134.699219 360.601562 134.699219 C 351.828125 134.699219 347.652344 138.71875 341.023438 145.828125 C 334.421875 152.910156 326.203125 161.722656 310.195312 161.722656 C 294.191406 161.722656 285.972656 152.910156 279.367188 145.828125 C 272.734375 138.71875 268.558594 134.699219 259.785156 134.699219 C 251.015625 134.699219 246.835938 138.71875 240.207031 145.828125 C 233.601562 152.910156 225.378906 161.722656 209.375 161.722656 C 193.367188 161.722656 185.148438 152.910156 178.542969 145.828125 C 171.914062 138.71875 167.738281 134.699219 158.964844 134.699219 C 150.191406 134.699219 146.011719 138.71875 139.382812 145.828125 C 132.777344 152.910156 124.558594 161.722656 108.550781 161.722656 C 92.546875 161.722656 84.324219 152.910156 77.71875 145.828125 C 71.085938 138.71875 66.90625 134.699219 58.132812 134.699219 C 49.355469 134.699219 45.175781 138.71875 38.546875 145.828125 C 31.941406 152.910156 23.71875 161.722656 7.710938 161.722656 C 3.609375 161.722656 0.285156 158.644531 0.285156 154.851562 C 0.285156 151.0625 3.609375 147.984375 7.710938 147.984375 C 16.488281 147.984375 20.664062 143.964844 27.296875 136.855469 C 33.90625 129.773438 42.125 120.957031 58.132812 120.957031 C 74.136719 120.957031 82.359375 129.773438 88.964844 136.855469 C 95.597656 143.964844 99.777344 147.984375 108.550781 147.984375 C 117.324219 147.984375 121.503906 143.964844 128.132812 136.855469 C 134.738281 129.773438 142.957031 120.957031 158.964844 120.957031 C 174.96875 120.957031 183.191406 129.773438 189.796875 136.855469 C 196.425781 143.964844 200.601562 147.984375 209.375 147.984375 C 218.148438 147.984375 222.328125 143.964844 228.957031 136.855469 C 235.5625 129.773438 243.78125 120.957031 259.785156 120.957031 C 275.792969 120.957031 284.011719 129.773438 290.617188 136.855469 C 297.246094 143.964844 301.425781 147.984375 310.195312 147.984375 C 318.96875 147.984375 323.148438 143.964844 329.773438 136.855469 C 336.378906 129.773438 344.597656 120.957031 360.601562 120.957031 C 376.605469 120.957031 384.824219 129.773438 391.429688 136.855469 C 398.058594 143.964844 402.234375 147.984375 411.003906 147.984375 C 419.773438 147.984375 423.949219 143.964844 430.578125 136.855469 C 437.179688 129.773438 445.402344 120.957031 461.402344 120.957031 C 477.40625 120.957031 485.625 129.773438 492.230469 136.855469 C 498.859375 143.964844 503.039062 147.984375 511.808594 147.984375 C 515.910156 147.984375 519.238281 151.0625 519.238281 154.851562 C 519.238281 158.644531 515.910156 161.722656 511.808594 161.722656 " fill-opacity="1" fill-rule="nonzero"/></g><g clip-path="url(#b6dcc59df3)"><path fill="#f0ead8" d="M 511.808594 101.257812 C 495.804688 101.257812 487.585938 92.445312 480.980469 85.363281 C 474.351562 78.257812 470.175781 74.234375 461.402344 74.234375 C 452.632812 74.234375 448.457031 78.257812 441.828125 85.363281 C 435.226562 92.445312 427.007812 101.257812 411.003906 101.257812 C 395 101.257812 386.78125 92.445312 380.179688 85.363281 C 373.550781 78.257812 369.371094 74.234375 360.601562 74.234375 C 351.828125 74.234375 347.652344 78.257812 341.023438 85.363281 C 334.421875 92.445312 326.203125 101.257812 310.195312 101.257812 C 294.191406 101.257812 285.972656 92.445312 279.367188 85.363281 C 272.734375 78.257812 268.558594 74.234375 259.785156 74.234375 C 251.015625 74.234375 246.835938 78.257812 240.207031 85.363281 C 233.601562 92.445312 225.378906 101.257812 209.375 101.257812 C 193.367188 101.257812 185.148438 92.445312 178.542969 85.363281 C 171.914062 78.257812 167.738281 74.234375 158.964844 74.234375 C 150.191406 74.234375 146.011719 78.257812 139.382812 85.363281 C 132.777344 92.445312 124.558594 101.257812 108.550781 101.257812 C 92.546875 101.257812 84.324219 92.445312 77.71875 85.363281 C 71.085938 78.257812 66.90625 74.234375 58.132812 74.234375 C 49.355469 74.234375 45.175781 78.257812 38.546875 85.363281 C 31.941406 92.445312 23.71875 101.257812 7.710938 101.257812 C 3.609375 101.257812 0.285156 98.183594 0.285156 94.390625 C 0.285156 90.59375 3.609375 87.519531 7.710938 87.519531 C 16.488281 87.519531 20.664062 83.496094 27.296875 76.390625 C 33.90625 69.308594 42.125 60.496094 58.132812 60.496094 C 74.136719 60.496094 82.359375 69.308594 88.964844 76.390625 C 95.597656 83.496094 99.777344 87.519531 108.550781 87.519531 C 117.324219 87.519531 121.503906 83.496094 128.132812 76.390625 C 134.738281 69.308594 142.957031 60.496094 158.964844 60.496094 C 174.96875 60.496094 183.191406 69.308594 189.796875 76.390625 C 196.425781 83.496094 200.601562 87.519531 209.375 87.519531 C 218.148438 87.519531 222.328125 83.496094 228.957031 76.390625 C 235.5625 69.308594 243.78125 60.496094 259.785156 60.496094 C 275.792969 60.496094 284.011719 69.308594 290.617188 76.390625 C 297.246094 83.496094 301.425781 87.519531 310.195312 87.519531 C 318.96875 87.519531 323.148438 83.496094 329.773438 76.390625 C 336.378906 69.308594 344.597656 60.496094 360.601562 60.496094 C 376.605469 60.496094 384.824219 69.308594 391.429688 76.390625 C 398.058594 83.5 402.234375 87.519531 411.003906 87.519531 C 419.773438 87.519531 423.949219 83.5 430.578125 76.390625 C 437.179688 69.308594 445.402344 60.496094 461.402344 60.496094 C 477.40625 60.496094 485.625 69.308594 492.230469 76.390625 C 498.859375 83.5 503.039062 87.519531 511.808594 87.519531 C 515.910156 87.519531 519.238281 90.59375 519.238281 94.390625 C 519.238281 98.183594 515.910156 101.257812 511.808594 101.257812 " fill-opacity="1" fill-rule="nonzero"/></g><g clip-path="url(#45eb2eef6a)"><path fill="#f0ead8" d="M 511.808594 40.796875 C 495.804688 40.796875 487.585938 31.980469 480.980469 24.898438 C 474.351562 17.789062 470.175781 13.769531 461.402344 13.769531 C 452.632812 13.769531 448.457031 17.789062 441.828125 24.898438 C 435.226562 31.980469 427.007812 40.796875 411.003906 40.796875 C 395 40.796875 386.78125 31.980469 380.179688 24.898438 C 373.550781 17.789062 369.371094 13.769531 360.601562 13.769531 C 351.828125 13.769531 347.652344 17.789062 341.023438 24.898438 C 334.421875 31.980469 326.203125 40.796875 310.195312 40.796875 C 294.191406 40.796875 285.972656 31.980469 279.367188 24.898438 C 272.734375 17.789062 268.558594 13.769531 259.785156 13.769531 C 251.015625 13.769531 246.835938 17.789062 240.207031 24.898438 C 233.601562 31.980469 225.378906 40.796875 209.375 40.796875 C 193.367188 40.796875 185.148438 31.980469 178.542969 24.898438 C 171.914062 17.789062 167.738281 13.769531 158.964844 13.769531 C 150.191406 13.769531 146.011719 17.789062 139.382812 24.898438 C 132.777344 31.980469 124.558594 40.796875 108.550781 40.796875 C 92.546875 40.796875 84.324219 31.980469 77.71875 24.902344 C 71.085938 17.789062 66.90625 13.769531 58.132812 13.769531 C 49.355469 13.769531 45.175781 17.789062 38.546875 24.902344 C 31.941406 31.980469 23.71875 40.796875 7.710938 40.796875 C 3.609375 40.796875 0.285156 37.71875 0.285156 33.925781 C 0.285156 30.132812 3.609375 27.054688 7.710938 27.054688 C 16.488281 27.054688 20.664062 23.035156 27.296875 15.925781 C 33.90625 8.84375 42.125 0.03125 58.132812 0.03125 C 74.136719 0.03125 82.359375 8.84375 88.964844 15.925781 C 95.597656 23.035156 99.777344 27.054688 108.550781 27.054688 C 117.324219 27.054688 121.503906 23.035156 128.132812 15.925781 C 134.738281 8.84375 142.957031 0.03125 158.964844 0.03125 C 174.96875 0.03125 183.191406 8.84375 189.796875 15.925781 C 196.425781 23.035156 200.601562 27.054688 209.375 27.054688 C 218.148438 27.054688 222.328125 23.035156 228.957031 15.925781 C 235.5625 8.84375 243.78125 0.03125 259.785156 0.03125 C 275.792969 0.03125 284.011719 8.84375 290.617188 15.925781 C 297.246094 23.035156 301.425781 27.054688 310.195312 27.054688 C 318.96875 27.054688 323.148438 23.035156 329.773438 15.925781 C 336.378906 8.84375 344.597656 0.03125 360.601562 0.03125 C 376.605469 0.03125 384.824219 8.84375 391.429688 15.925781 C 398.058594 23.035156 402.234375 27.054688 411.003906 27.054688 C 419.773438 27.054688 423.949219 23.035156 430.578125 15.925781 C 437.179688 8.84375 445.402344 0.03125 461.402344 0.03125 C 477.40625 0.03125 485.625 8.84375 492.230469 15.925781 C 498.859375 23.035156 503.039062 27.054688 511.808594 27.054688 C 515.910156 27.054688 519.238281 30.132812 519.238281 33.925781 C 519.238281 37.71875 515.910156 40.796875 511.808594 40.796875 " fill-opacity="1" fill-rule="nonzero"/></g><g clip-path="url(#2318b546cf)"><g clip-path="url(#c761a893a8)"><path fill="#f0ead8" d="M 489.277344 19.183594 L 498.375 19.183594 L 498.375 28.042969 L 489.277344 28.042969 Z M 489.277344 19.183594 " fill-opacity="1" fill-rule="nonzero"/></g></g></svg>