<svg xmlns="http://www.w3.org/2000/svg" xmlns:xlink="http://www.w3.org/1999/xlink" width="711" zoomAndPan="magnify" viewBox="0 0 533.25 203.999996" height="272" preserveAspectRatio="xMidYMid meet" version="1.0"><defs><g/><clipPath id="e60d875084"><path d="M 466.277344 123.582031 L 469.144531 123.582031 L 469.144531 125.980469 L 466.277344 125.980469 Z M 466.277344 123.582031 " clip-rule="nonzero"/></clipPath><clipPath id="dd2002894f"><path d="M 469.144531 124.382812 C 467.871094 126.40625 466.671875 126.03125 466.371094 125.65625 C 466.148438 125.207031 466.371094 124.007812 466.746094 123.707031 C 467.121094 123.410156 468.769531 123.785156 468.769531 123.785156 " clip-rule="nonzero"/></clipPath></defs><g fill="#f0ead8" fill-opacity="1"><g transform="translate(38.690581, 130.579801)"><g><path d="M 9.953125 -6.65625 C 4.921875 -12.144531 2.40625 -18.875 2.40625 -26.84375 C 2.40625 -34.8125 4.921875 -41.554688 9.953125 -47.078125 C 14.992188 -52.597656 21.394531 -55.359375 29.15625 -55.359375 C 36.28125 -55.359375 42.148438 -53.125 46.765625 -48.65625 L 46.765625 -53.796875 L 65.328125 -53.796875 L 65.328125 0 L 46.984375 0 L 46.984375 -6.078125 L 46.765625 -6.078125 C 42.148438 -0.972656 36.28125 1.578125 29.15625 1.578125 C 21.394531 1.578125 14.992188 -1.164062 9.953125 -6.65625 Z M 25.734375 -35.96875 C 23.328125 -33.59375 22.125 -30.550781 22.125 -26.84375 C 22.125 -23.132812 23.273438 -20.109375 25.578125 -17.765625 C 27.890625 -15.429688 30.929688 -14.265625 34.703125 -14.265625 C 38.335938 -14.265625 41.328125 -15.453125 43.671875 -17.828125 C 46.015625 -20.203125 47.1875 -23.207031 47.1875 -26.84375 C 47.1875 -30.550781 45.976562 -33.59375 43.5625 -35.96875 C 41.15625 -38.34375 38.203125 -39.53125 34.703125 -39.53125 C 31.140625 -39.53125 28.148438 -38.34375 25.734375 -35.96875 Z M 25.734375 -35.96875 "/></g></g></g><g fill="#f0ead8" fill-opacity="1"><g transform="translate(105.062282, 130.579801)"><g><path d="M 6.296875 0 L 6.296875 -53.796875 L 24.859375 -53.796875 L 24.859375 -46.03125 L 25.0625 -46.03125 C 25.195312 -46.3125 25.421875 -46.660156 25.734375 -47.078125 C 26.054688 -47.503906 26.738281 -48.238281 27.78125 -49.28125 C 28.832031 -50.332031 29.953125 -51.273438 31.140625 -52.109375 C 32.328125 -52.953125 33.863281 -53.703125 35.75 -54.359375 C 37.644531 -55.023438 39.570312 -55.359375 41.53125 -55.359375 C 43.550781 -55.359375 45.539062 -55.078125 47.5 -54.515625 C 49.457031 -53.960938 50.890625 -53.40625 51.796875 -52.84375 L 53.265625 -52.015625 L 45.515625 -36.28125 C 43.203125 -38.238281 39.984375 -39.21875 35.859375 -39.21875 C 33.617188 -39.21875 31.695312 -38.726562 30.09375 -37.75 C 28.488281 -36.769531 27.351562 -35.582031 26.6875 -34.1875 C 26.019531 -32.789062 25.546875 -31.601562 25.265625 -30.625 C 24.992188 -29.644531 24.859375 -28.875 24.859375 -28.3125 L 24.859375 0 Z M 6.296875 0 "/></g></g></g><g fill="#f0ead8" fill-opacity="1"><g transform="translate(152.036248, 130.579801)"><g><path d="M 34.921875 -40.15625 C 31.421875 -40.15625 28.410156 -38.863281 25.890625 -36.28125 C 23.378906 -33.695312 22.125 -30.585938 22.125 -26.953125 C 22.125 -23.242188 23.378906 -20.09375 25.890625 -17.5 C 28.410156 -14.914062 31.421875 -13.625 34.921875 -13.625 C 36.597656 -13.625 38.1875 -13.832031 39.6875 -14.25 C 41.1875 -14.675781 42.289062 -15.097656 43 -15.515625 L 43.9375 -16.140625 L 50.234375 -3.25 C 49.742188 -2.894531 49.0625 -2.457031 48.1875 -1.9375 C 47.3125 -1.414062 45.316406 -0.703125 42.203125 0.203125 C 39.097656 1.117188 35.757812 1.578125 32.1875 1.578125 C 24.289062 1.578125 17.351562 -1.195312 11.375 -6.75 C 5.394531 -12.3125 2.40625 -18.972656 2.40625 -26.734375 C 2.40625 -34.566406 5.394531 -41.296875 11.375 -46.921875 C 17.351562 -52.546875 24.289062 -55.359375 32.1875 -55.359375 C 35.757812 -55.359375 39.046875 -54.9375 42.046875 -54.09375 C 45.054688 -53.257812 47.1875 -52.425781 48.4375 -51.59375 L 50.234375 -50.328125 L 43.9375 -37.640625 C 41.625 -39.316406 38.617188 -40.15625 34.921875 -40.15625 Z M 34.921875 -40.15625 "/></g></g></g><g fill="#f0ead8" fill-opacity="1"><g transform="translate(198.276249, 130.579801)"><g><path d="M 6.296875 0 L 6.296875 -90.171875 L 24.859375 -90.171875 L 24.859375 -48.125 L 25.0625 -48.125 C 29.882812 -52.945312 35.019531 -55.359375 40.46875 -55.359375 C 43.125 -55.359375 45.765625 -55.007812 48.390625 -54.3125 C 51.015625 -53.613281 53.53125 -52.53125 55.9375 -51.0625 C 58.351562 -49.59375 60.3125 -47.515625 61.8125 -44.828125 C 63.3125 -42.140625 64.0625 -39.007812 64.0625 -35.4375 L 64.0625 0 L 45.515625 0 L 45.515625 -30.40625 C 45.515625 -33.207031 44.617188 -35.65625 42.828125 -37.75 C 41.046875 -39.84375 38.722656 -40.890625 35.859375 -40.890625 C 33.066406 -40.890625 30.535156 -39.804688 28.265625 -37.640625 C 25.992188 -35.472656 24.859375 -33.0625 24.859375 -30.40625 L 24.859375 0 Z M 6.296875 0 "/></g></g></g><g fill="#f0ead8" fill-opacity="1"><g transform="translate(262.341193, 130.579801)"><g><path d="M 8.078125 -83.78125 C 10.242188 -85.945312 12.828125 -87.03125 15.828125 -87.03125 C 18.835938 -87.03125 21.425781 -85.945312 23.59375 -83.78125 C 25.757812 -81.613281 26.84375 -79.023438 26.84375 -76.015625 C 26.84375 -73.015625 25.757812 -70.429688 23.59375 -68.265625 C 21.425781 -66.097656 18.835938 -65.015625 15.828125 -65.015625 C 12.828125 -65.015625 10.242188 -66.097656 8.078125 -68.265625 C 5.910156 -70.429688 4.828125 -73.015625 4.828125 -76.015625 C 4.828125 -79.023438 5.910156 -81.613281 8.078125 -83.78125 Z M 6.296875 -53.796875 L 6.296875 0 L 24.859375 0 L 24.859375 -53.796875 Z M 6.296875 -53.796875 "/></g></g></g><g fill="#f0ead8" fill-opacity="1"><g transform="translate(288.764051, 130.579801)"><g><path d="M 19.921875 -53.796875 L 33.03125 -24.53125 L 46.140625 -53.796875 L 68.15625 -53.796875 L 39.328125 0 L 26.734375 0 L -2.09375 -53.796875 Z M 19.921875 -53.796875 "/></g></g></g><g fill="#f0ead8" fill-opacity="1"><g transform="translate(349.578569, 130.579801)"><g><path d="M 60.71875 -24.328125 L 21.703125 -24.328125 C 21.703125 -20.554688 22.925781 -17.757812 25.375 -15.9375 C 27.820312 -14.125 30.476562 -13.21875 33.34375 -13.21875 C 36.351562 -13.21875 38.726562 -13.617188 40.46875 -14.421875 C 42.21875 -15.222656 44.210938 -16.8125 46.453125 -19.1875 L 59.875 -12.484375 C 54.28125 -3.109375 44.984375 1.578125 31.984375 1.578125 C 23.867188 1.578125 16.910156 -1.195312 11.109375 -6.75 C 5.304688 -12.3125 2.40625 -19.007812 2.40625 -26.84375 C 2.40625 -34.675781 5.304688 -41.382812 11.109375 -46.96875 C 16.910156 -52.5625 23.867188 -55.359375 31.984375 -55.359375 C 40.515625 -55.359375 47.453125 -52.894531 52.796875 -47.96875 C 58.140625 -43.039062 60.8125 -36 60.8125 -26.84375 C 60.8125 -25.582031 60.78125 -24.742188 60.71875 -24.328125 Z M 22.234375 -34.609375 L 42.671875 -34.609375 C 42.253906 -37.398438 41.15625 -39.546875 39.375 -41.046875 C 37.59375 -42.554688 35.300781 -43.3125 32.5 -43.3125 C 29.425781 -43.3125 26.976562 -42.503906 25.15625 -40.890625 C 23.34375 -39.285156 22.367188 -37.191406 22.234375 -34.609375 Z M 22.234375 -34.609375 "/></g></g></g><g fill="#f0ead8" fill-opacity="1"><g transform="translate(407.562048, 130.579801)"><g><path d="M 29.671875 -55.359375 C 32.742188 -55.359375 35.785156 -55.007812 38.796875 -54.3125 C 41.804688 -53.613281 44.046875 -52.914062 45.515625 -52.21875 L 47.71875 -51.171875 L 41.625 -39 C 37.4375 -41.238281 33.453125 -42.359375 29.671875 -42.359375 C 27.578125 -42.359375 26.09375 -42.128906 25.21875 -41.671875 C 24.34375 -41.222656 23.90625 -40.367188 23.90625 -39.109375 C 23.90625 -38.828125 23.941406 -38.546875 24.015625 -38.265625 C 24.085938 -37.992188 24.226562 -37.734375 24.4375 -37.484375 C 24.644531 -37.242188 24.832031 -37.035156 25 -36.859375 C 25.175781 -36.679688 25.472656 -36.488281 25.890625 -36.28125 C 26.316406 -36.070312 26.648438 -35.914062 26.890625 -35.8125 C 27.140625 -35.707031 27.539062 -35.546875 28.09375 -35.328125 C 28.65625 -35.117188 29.078125 -34.960938 29.359375 -34.859375 C 29.640625 -34.753906 30.109375 -34.597656 30.765625 -34.390625 C 31.429688 -34.179688 31.941406 -34.039062 32.296875 -33.96875 C 34.460938 -33.34375 36.347656 -32.644531 37.953125 -31.875 C 39.566406 -31.101562 41.265625 -30.050781 43.046875 -28.71875 C 44.828125 -27.394531 46.207031 -25.71875 47.1875 -23.6875 C 48.164062 -21.664062 48.65625 -19.363281 48.65625 -16.78125 C 48.65625 -4.539062 40.160156 1.578125 23.171875 1.578125 C 19.328125 1.578125 15.675781 0.984375 12.21875 -0.203125 C 8.757812 -1.398438 6.257812 -2.59375 4.71875 -3.78125 L 2.40625 -5.65625 L 9.96875 -18.34375 C 10.519531 -17.851562 11.25 -17.273438 12.15625 -16.609375 C 13.070312 -15.953125 14.71875 -15.046875 17.09375 -13.890625 C 19.46875 -12.734375 21.53125 -12.15625 23.28125 -12.15625 C 27.125 -12.15625 29.046875 -13.453125 29.046875 -16.046875 C 29.046875 -17.234375 28.554688 -18.15625 27.578125 -18.8125 C 26.597656 -19.476562 24.9375 -20.226562 22.59375 -21.0625 C 20.25 -21.90625 18.414062 -22.679688 17.09375 -23.390625 C 13.738281 -25.128906 11.082031 -27.097656 9.125 -29.296875 C 7.164062 -31.503906 6.1875 -34.425781 6.1875 -38.0625 C 6.1875 -43.519531 8.300781 -47.765625 12.53125 -50.796875 C 16.757812 -53.835938 22.472656 -55.359375 29.671875 -55.359375 Z M 29.671875 -55.359375 "/></g></g></g><g fill="#f0ead8" fill-opacity="1"><g transform="translate(453.906913, 130.579801)"><g><path d="M 18.25 -22.4375 C 21.601562 -22.4375 24.445312 -21.265625 26.78125 -18.921875 C 29.125 -16.585938 30.296875 -13.738281 30.296875 -10.375 C 30.296875 -7.09375 29.125 -4.28125 26.78125 -1.9375 C 24.445312 0.40625 21.601562 1.578125 18.25 1.578125 C 14.957031 1.578125 12.140625 0.40625 9.796875 -1.9375 C 7.460938 -4.28125 6.296875 -7.09375 6.296875 -10.375 C 6.296875 -13.738281 7.460938 -16.585938 9.796875 -18.921875 C 12.140625 -21.265625 14.957031 -22.4375 18.25 -22.4375 Z M 18.25 -22.4375 "/></g></g></g><g clip-path="url(#e60d875084)"><g clip-path="url(#dd2002894f)"><path fill="#f0ead8" d="M 463.375 120.710938 L 472.148438 120.710938 L 472.148438 129.25 L 463.375 129.25 Z M 463.375 120.710938 " fill-opacity="1" fill-rule="nonzero"/></g></g></svg>