<svg xmlns="http://www.w3.org/2000/svg" xmlns:xlink="http://www.w3.org/1999/xlink" width="119" zoomAndPan="magnify" viewBox="0 0 89.25 597.749986" height="797" preserveAspectRatio="xMidYMid meet" version="1.0"><defs><clipPath id="c954943a93"><path d="M 27 97 L 87.761719 97 L 87.761719 167 L 27 167 Z M 27 97 " clip-rule="nonzero"/></clipPath><clipPath id="f4928c9673"><path d="M 35 111 L 87.761719 111 L 87.761719 174 L 35 174 Z M 35 111 " clip-rule="nonzero"/></clipPath><clipPath id="12ee077049"><path d="M 43 125 L 87.761719 125 L 87.761719 179 L 43 179 Z M 43 125 " clip-rule="nonzero"/></clipPath><clipPath id="c1b3f27666"><path d="M 52 139 L 87.761719 139 L 87.761719 184 L 52 184 Z M 52 139 " clip-rule="nonzero"/></clipPath><clipPath id="9278d63936"><path d="M 62 153 L 87.761719 153 L 87.761719 188 L 62 188 Z M 62 153 " clip-rule="nonzero"/></clipPath><clipPath id="0a3ce9698d"><path d="M 72 167 L 87.761719 167 L 87.761719 191 L 72 191 Z M 72 167 " clip-rule="nonzero"/></clipPath><clipPath id="4a837763a4"><path d="M 84 181 L 87.761719 181 L 87.761719 193 L 84 193 Z M 84 181 " clip-rule="nonzero"/></clipPath><clipPath id="bb97707fc1"><path d="M 27 27 L 87.761719 27 L 87.761719 98 L 27 98 Z M 27 27 " clip-rule="nonzero"/></clipPath><clipPath id="c94343696c"><path d="M 35 21 L 87.761719 21 L 87.761719 84 L 35 84 Z M 35 21 " clip-rule="nonzero"/></clipPath><clipPath id="524c1551f0"><path d="M 43 15 L 87.761719 15 L 87.761719 70 L 43 70 Z M 43 15 " clip-rule="nonzero"/></clipPath><clipPath id="a794f0ccd9"><path d="M 52 10 L 87.761719 10 L 87.761719 56 L 52 56 Z M 52 10 " clip-rule="nonzero"/></clipPath><clipPath id="0287e0f3dc"><path d="M 62 6 L 87.761719 6 L 87.761719 42 L 62 42 Z M 62 6 " clip-rule="nonzero"/></clipPath><clipPath id="16bb0153ba"><path d="M 72 4 L 87.761719 4 L 87.761719 28 L 72 28 Z M 72 4 " clip-rule="nonzero"/></clipPath><clipPath id="cb93d59480"><path d="M 84 2.367188 L 87.761719 2.367188 L 87.761719 14 L 84 14 Z M 84 2.367188 " clip-rule="nonzero"/></clipPath><clipPath id="390fea3739"><path d="M 27 287 L 87.761719 287 L 87.761719 358 L 27 358 Z M 27 287 " clip-rule="nonzero"/></clipPath><clipPath id="812f437be5"><path d="M 35 301 L 87.761719 301 L 87.761719 364 L 35 364 Z M 35 301 " clip-rule="nonzero"/></clipPath><clipPath id="765d41f38c"><path d="M 43 315 L 87.761719 315 L 87.761719 370 L 43 370 Z M 43 315 " clip-rule="nonzero"/></clipPath><clipPath id="5b2ed3fd00"><path d="M 52 329 L 87.761719 329 L 87.761719 375 L 52 375 Z M 52 329 " clip-rule="nonzero"/></clipPath><clipPath id="5a0bab6fa7"><path d="M 62 343 L 87.761719 343 L 87.761719 379 L 62 379 Z M 62 343 " clip-rule="nonzero"/></clipPath><clipPath id="1a495e88c6"><path d="M 72 358 L 87.761719 358 L 87.761719 382 L 72 382 Z M 72 358 " clip-rule="nonzero"/></clipPath><clipPath id="456e09a8fe"><path d="M 84 371 L 87.761719 371 L 87.761719 383 L 84 383 Z M 84 371 " clip-rule="nonzero"/></clipPath><clipPath id="bc1b5c6a0d"><path d="M 27 218 L 87.761719 218 L 87.761719 288 L 27 288 Z M 27 218 " clip-rule="nonzero"/></clipPath><clipPath id="7dff395ac9"><path d="M 35 212 L 87.761719 212 L 87.761719 274 L 35 274 Z M 35 212 " clip-rule="nonzero"/></clipPath><clipPath id="efca940beb"><path d="M 43 206 L 87.761719 206 L 87.761719 260 L 43 260 Z M 43 206 " clip-rule="nonzero"/></clipPath><clipPath id="7fd0b96f5f"><path d="M 52 201 L 87.761719 201 L 87.761719 246 L 52 246 Z M 52 201 " clip-rule="nonzero"/></clipPath><clipPath id="6d567d65d3"><path d="M 62 197 L 87.761719 197 L 87.761719 232 L 62 232 Z M 62 197 " clip-rule="nonzero"/></clipPath><clipPath id="1d7dfe272c"><path d="M 72 194 L 87.761719 194 L 87.761719 218 L 72 218 Z M 72 194 " clip-rule="nonzero"/></clipPath><clipPath id="d82f4392d3"><path d="M 84 193 L 87.761719 193 L 87.761719 204 L 84 204 Z M 84 193 " clip-rule="nonzero"/></clipPath><clipPath id="ace7759d99"><path d="M 27 478 L 87.761719 478 L 87.761719 549 L 27 549 Z M 27 478 " clip-rule="nonzero"/></clipPath><clipPath id="f137b30b16"><path d="M 35 492 L 87.761719 492 L 87.761719 555 L 35 555 Z M 35 492 " clip-rule="nonzero"/></clipPath><clipPath id="c15efd00f3"><path d="M 43 506 L 87.761719 506 L 87.761719 561 L 43 561 Z M 43 506 " clip-rule="nonzero"/></clipPath><clipPath id="dbc79b0d45"><path d="M 52 520 L 87.761719 520 L 87.761719 566 L 52 566 Z M 52 520 " clip-rule="nonzero"/></clipPath><clipPath id="44cf962723"><path d="M 62 534 L 87.761719 534 L 87.761719 570 L 62 570 Z M 62 534 " clip-rule="nonzero"/></clipPath><clipPath id="37eeccc4b2"><path d="M 72 548 L 87.761719 548 L 87.761719 572 L 72 572 Z M 72 548 " clip-rule="nonzero"/></clipPath><clipPath id="d3e80efb2e"><path d="M 84 562 L 87.761719 562 L 87.761719 573.566406 L 84 573.566406 Z M 84 562 " clip-rule="nonzero"/></clipPath><clipPath id="bfbefa9562"><path d="M 27 409 L 87.761719 409 L 87.761719 479 L 27 479 Z M 27 409 " clip-rule="nonzero"/></clipPath><clipPath id="69daea1454"><path d="M 35 402 L 87.761719 402 L 87.761719 465 L 35 465 Z M 35 402 " clip-rule="nonzero"/></clipPath><clipPath id="bb7c7b50f1"><path d="M 43 397 L 87.761719 397 L 87.761719 451 L 43 451 Z M 43 397 " clip-rule="nonzero"/></clipPath><clipPath id="13fb784a24"><path d="M 52 392 L 87.761719 392 L 87.761719 437 L 52 437 Z M 52 392 " clip-rule="nonzero"/></clipPath><clipPath id="6602f0a0d4"><path d="M 62 388 L 87.761719 388 L 87.761719 423 L 62 423 Z M 62 388 " clip-rule="nonzero"/></clipPath><clipPath id="e904b0ec97"><path d="M 72 385 L 87.761719 385 L 87.761719 409 L 72 409 Z M 72 385 " clip-rule="nonzero"/></clipPath><clipPath id="f5929386c5"><path d="M 84 383 L 87.761719 383 L 87.761719 395 L 84 395 Z M 84 383 " clip-rule="nonzero"/></clipPath><clipPath id="dfe0bff498"><path d="M 51.167969 588.839844 L 54.015625 588.839844 L 54.015625 591.222656 L 51.167969 591.222656 Z M 51.167969 588.839844 " clip-rule="nonzero"/></clipPath><clipPath id="14aa80da51"><path d="M 54.015625 589.636719 C 52.75 591.644531 51.558594 591.269531 51.261719 590.898438 C 51.039062 590.453125 51.261719 589.261719 51.632812 588.964844 C 52.003906 588.667969 53.640625 589.039062 53.640625 589.039062 " clip-rule="nonzero"/></clipPath></defs><g clip-path="url(#c954943a93)"><path fill="#fe3563" d="M 162.335938 164.425781 C 161.558594 165.203125 160.777344 165.941406 159.957031 166.722656 L 95.109375 101.875 L 30.261719 166.722656 C 29.441406 165.984375 28.664062 165.203125 27.882812 164.425781 L 95.109375 97.238281 Z M 162.335938 164.425781 " fill-opacity="1" fill-rule="nonzero"/></g><g clip-path="url(#f4928c9673)"><path fill="#fe3563" d="M 154.953125 171.070312 C 154.09375 171.765625 153.230469 172.421875 152.371094 173.121094 L 95.109375 115.859375 L 37.890625 173.121094 C 37.03125 172.464844 36.128906 171.765625 35.308594 171.070312 L 95.152344 111.226562 Z M 154.953125 171.070312 " fill-opacity="1" fill-rule="nonzero"/></g><g clip-path="url(#12ee077049)"><path fill="#fe3563" d="M 146.871094 176.976562 C 145.929688 177.589844 144.984375 178.207031 144 178.78125 L 95.109375 129.847656 L 46.257812 178.738281 C 45.316406 178.164062 44.332031 177.550781 43.386719 176.933594 L 95.109375 125.210938 Z M 146.871094 176.976562 " fill-opacity="1" fill-rule="nonzero"/></g><g clip-path="url(#c1b3f27666)"><path fill="#fe3563" d="M 137.972656 182.0625 C 136.945312 182.59375 135.878906 183.085938 134.855469 183.578125 L 95.109375 143.875 L 55.40625 183.578125 C 54.339844 183.085938 53.3125 182.59375 52.289062 182.0625 L 95.152344 139.199219 Z M 137.972656 182.0625 " fill-opacity="1" fill-rule="nonzero"/></g><g clip-path="url(#9278d63936)"><path fill="#fe3563" d="M 128.210938 186.328125 C 127.0625 186.738281 125.953125 187.148438 124.765625 187.515625 L 95.109375 157.863281 L 65.453125 187.515625 C 64.304688 187.148438 63.15625 186.738281 62.007812 186.328125 L 95.109375 153.226562 Z M 128.210938 186.328125 " fill-opacity="1" fill-rule="nonzero"/></g><g clip-path="url(#0a3ce9698d)"><path fill="#fe3563" d="M 117.503906 189.609375 C 116.234375 189.894531 114.960938 190.183594 113.691406 190.429688 L 95.109375 171.847656 L 76.527344 190.429688 C 75.257812 190.183594 73.984375 189.894531 72.714844 189.609375 L 95.070312 167.253906 Z M 117.503906 189.609375 " fill-opacity="1" fill-rule="nonzero"/></g><g clip-path="url(#4a837763a4)"><path fill="#fe3563" d="M 105.570312 191.699219 C 104.175781 191.863281 102.738281 191.988281 101.304688 192.070312 L 95.109375 185.875 L 88.917969 192.070312 C 87.480469 191.988281 86.046875 191.863281 84.652344 191.699219 L 95.109375 181.242188 Z M 105.570312 191.699219 " fill-opacity="1" fill-rule="nonzero"/></g><g clip-path="url(#bb97707fc1)"><path fill="#fe3563" d="M 162.335938 30.011719 L 95.109375 97.238281 L 27.925781 30.011719 C 28.703125 29.234375 29.484375 28.496094 30.304688 27.714844 L 95.152344 92.5625 L 159.957031 27.714844 C 160.777344 28.496094 161.558594 29.234375 162.335938 30.011719 Z M 162.335938 30.011719 " fill-opacity="1" fill-rule="nonzero"/></g><g clip-path="url(#c94343696c)"><path fill="#fe3563" d="M 154.953125 23.367188 L 95.109375 83.210938 L 35.265625 23.367188 C 36.128906 22.671875 36.988281 21.972656 37.851562 21.316406 L 95.070312 78.535156 L 152.371094 21.316406 C 153.230469 22.015625 154.09375 22.671875 154.953125 23.367188 Z M 154.953125 23.367188 " fill-opacity="1" fill-rule="nonzero"/></g><g clip-path="url(#524c1551f0)"><path fill="#fe3563" d="M 146.871094 17.460938 L 95.109375 69.222656 L 43.386719 17.460938 C 44.332031 16.84375 45.273438 16.230469 46.257812 15.65625 L 95.152344 64.546875 L 144 15.695312 C 144.984375 16.269531 145.929688 16.84375 146.871094 17.460938 Z M 146.871094 17.460938 " fill-opacity="1" fill-rule="nonzero"/></g><g clip-path="url(#a794f0ccd9)"><path fill="#fe3563" d="M 137.972656 12.332031 L 95.109375 55.195312 L 52.289062 12.332031 C 53.3125 11.800781 54.378906 11.308594 55.40625 10.816406 L 95.109375 50.519531 L 134.8125 10.816406 C 135.878906 11.308594 136.945312 11.839844 137.972656 12.332031 Z M 137.972656 12.332031 " fill-opacity="1" fill-rule="nonzero"/></g><g clip-path="url(#0287e0f3dc)"><path fill="#fe3563" d="M 128.210938 8.109375 L 95.109375 41.210938 L 62.007812 8.109375 C 63.15625 7.699219 64.304688 7.289062 65.453125 6.917969 L 95.109375 36.574219 L 124.804688 6.878906 C 125.953125 7.289062 127.101562 7.65625 128.210938 8.109375 Z M 128.210938 8.109375 " fill-opacity="1" fill-rule="nonzero"/></g><g clip-path="url(#16bb0153ba)"><path fill="#fe3563" d="M 117.503906 4.828125 L 95.109375 27.222656 L 72.753906 4.828125 C 74.027344 4.539062 75.296875 4.253906 76.570312 4.007812 L 95.152344 22.589844 L 113.691406 4.007812 C 114.960938 4.253906 116.234375 4.5 117.503906 4.828125 Z M 117.503906 4.828125 " fill-opacity="1" fill-rule="nonzero"/></g><g clip-path="url(#cb93d59480)"><path fill="#fe3563" d="M 105.570312 2.734375 L 95.109375 13.195312 L 84.652344 2.734375 C 86.085938 2.570312 87.480469 2.449219 88.917969 2.367188 L 95.109375 8.558594 L 101.304688 2.367188 C 102.738281 2.449219 104.175781 2.570312 105.570312 2.734375 Z M 105.570312 2.734375 " fill-opacity="1" fill-rule="nonzero"/></g><path fill="#fe3563" d="M 85.226562 97.238281 L 23.167969 159.296875 C 22.429688 158.476562 21.730469 157.617188 21.074219 156.753906 L 80.628906 97.199219 L 21.035156 37.683594 C 21.730469 36.820312 22.429688 36 23.125 35.140625 Z M 85.226562 97.238281 " fill-opacity="1" fill-rule="nonzero"/><path fill="#fe3563" d="M 71.238281 97.238281 L 17.015625 151.421875 C 16.398438 150.519531 15.742188 149.574219 15.167969 148.632812 L 66.5625 97.238281 L 15.167969 45.804688 C 15.785156 44.859375 16.398438 43.957031 17.015625 43.015625 Z M 71.238281 97.238281 " fill-opacity="1" fill-rule="nonzero"/><path fill="#fe3563" d="M 57.210938 97.238281 L 11.679688 142.765625 C 11.148438 141.742188 10.613281 140.757812 10.082031 139.730469 L 52.574219 97.238281 L 10.082031 54.746094 C 10.613281 53.71875 11.105469 52.695312 11.679688 51.710938 Z M 57.210938 97.238281 " fill-opacity="1" fill-rule="nonzero"/><path fill="#fe3563" d="M 43.222656 97.238281 L 7.167969 133.292969 C 6.71875 132.183594 6.265625 131.078125 5.855469 129.96875 L 38.589844 97.238281 L 5.855469 64.507812 C 6.265625 63.398438 6.71875 62.25 7.167969 61.183594 Z M 43.222656 97.238281 " fill-opacity="1" fill-rule="nonzero"/><path fill="#fe3563" d="M 29.195312 97.238281 L 3.558594 122.832031 C 3.230469 121.601562 2.902344 120.371094 2.617188 119.140625 L 24.5625 97.199219 L 2.617188 75.292969 C 2.902344 74.0625 3.230469 72.832031 3.558594 71.601562 Z M 29.195312 97.238281 " fill-opacity="1" fill-rule="nonzero"/><path fill="#fe3563" d="M 15.210938 97.238281 L 1.097656 111.308594 C 0.894531 109.953125 0.730469 108.558594 0.566406 107.207031 L 10.53125 97.238281 L 0.605469 87.269531 C 0.730469 85.875 0.933594 84.523438 1.140625 83.167969 Z M 15.210938 97.238281 " fill-opacity="1" fill-rule="nonzero"/><path fill="#fe3563" d="M 1.179688 97.238281 L 0.0742188 98.347656 C 0.0742188 97.976562 0.0742188 97.609375 0.0742188 97.238281 C 0.0742188 96.871094 0.0742188 96.5 0.0742188 96.132812 Z M 1.179688 97.238281 " fill-opacity="1" fill-rule="nonzero"/><g clip-path="url(#390fea3739)"><path fill="#ffbd59" d="M 162.335938 355.152344 C 161.558594 355.929688 160.777344 356.667969 159.957031 357.449219 L 95.109375 292.601562 L 30.261719 357.449219 C 29.441406 356.710938 28.664062 355.929688 27.882812 355.152344 L 95.109375 287.964844 Z M 162.335938 355.152344 " fill-opacity="1" fill-rule="nonzero"/></g><g clip-path="url(#812f437be5)"><path fill="#ffbd59" d="M 154.953125 361.796875 C 154.09375 362.496094 153.230469 363.152344 152.371094 363.847656 L 95.109375 306.589844 L 37.890625 363.847656 C 37.03125 363.191406 36.128906 362.496094 35.308594 361.796875 L 95.152344 301.953125 Z M 154.953125 361.796875 " fill-opacity="1" fill-rule="nonzero"/></g><g clip-path="url(#765d41f38c)"><path fill="#ffbd59" d="M 146.871094 367.703125 C 145.929688 368.320312 144.984375 368.933594 144 369.507812 L 95.109375 320.617188 L 46.257812 369.507812 C 45.316406 368.933594 44.332031 368.320312 43.386719 367.703125 L 95.109375 315.980469 Z M 146.871094 367.703125 " fill-opacity="1" fill-rule="nonzero"/></g><g clip-path="url(#5b2ed3fd00)"><path fill="#ffbd59" d="M 137.972656 372.832031 C 136.945312 373.363281 135.878906 373.855469 134.855469 374.347656 L 95.109375 334.601562 L 55.40625 374.308594 C 54.339844 373.816406 53.3125 373.324219 52.289062 372.789062 L 95.152344 329.925781 Z M 137.972656 372.832031 " fill-opacity="1" fill-rule="nonzero"/></g><g clip-path="url(#5a0bab6fa7)"><path fill="#ffbd59" d="M 128.210938 377.097656 C 127.0625 377.507812 125.953125 377.917969 124.765625 378.285156 L 95.109375 348.628906 L 65.453125 378.285156 C 64.304688 377.917969 63.15625 377.507812 62.007812 377.097656 L 95.109375 343.996094 Z M 128.210938 377.097656 " fill-opacity="1" fill-rule="nonzero"/></g><g clip-path="url(#1a495e88c6)"><path fill="#ffbd59" d="M 117.503906 380.378906 C 116.234375 380.664062 114.960938 380.953125 113.691406 381.199219 L 95.109375 362.617188 L 76.527344 381.199219 C 75.257812 380.953125 73.984375 380.664062 72.714844 380.378906 L 95.070312 358.023438 Z M 117.503906 380.378906 " fill-opacity="1" fill-rule="nonzero"/></g><g clip-path="url(#456e09a8fe)"><path fill="#ffbd59" d="M 105.570312 382.429688 C 104.175781 382.59375 102.738281 382.714844 101.304688 382.796875 L 95.109375 376.605469 L 88.917969 382.796875 C 87.480469 382.714844 86.046875 382.59375 84.652344 382.429688 L 95.109375 371.96875 Z M 105.570312 382.429688 " fill-opacity="1" fill-rule="nonzero"/></g><g clip-path="url(#bc1b5c6a0d)"><path fill="#ffbd59" d="M 162.335938 220.738281 L 95.109375 287.964844 L 27.925781 220.738281 C 28.703125 219.960938 29.484375 219.222656 30.304688 218.441406 L 95.109375 283.332031 L 159.957031 218.484375 C 160.777344 219.222656 161.558594 220 162.335938 220.738281 Z M 162.335938 220.738281 " fill-opacity="1" fill-rule="nonzero"/></g><g clip-path="url(#7dff395ac9)"><path fill="#ffbd59" d="M 154.953125 214.136719 L 95.109375 273.980469 L 35.265625 214.136719 C 36.128906 213.4375 36.988281 212.742188 37.851562 212.085938 L 95.070312 269.304688 L 152.328125 212.085938 C 153.230469 212.742188 154.09375 213.4375 154.953125 214.136719 Z M 154.953125 214.136719 " fill-opacity="1" fill-rule="nonzero"/></g><g clip-path="url(#efca940beb)"><path fill="#ffbd59" d="M 146.871094 208.230469 L 95.109375 259.953125 L 43.386719 208.230469 C 44.332031 207.613281 45.273438 207 46.257812 206.425781 L 95.152344 255.316406 L 144.042969 206.425781 C 144.984375 207 145.929688 207.613281 146.871094 208.230469 Z M 146.871094 208.230469 " fill-opacity="1" fill-rule="nonzero"/></g><g clip-path="url(#7fd0b96f5f)"><path fill="#ffbd59" d="M 137.972656 203.101562 L 95.109375 245.964844 L 52.289062 203.101562 C 53.3125 202.570312 54.378906 202.078125 55.40625 201.585938 L 95.109375 241.289062 L 134.8125 201.585938 C 135.878906 202.078125 136.945312 202.570312 137.972656 203.101562 Z M 137.972656 203.101562 " fill-opacity="1" fill-rule="nonzero"/></g><g clip-path="url(#6d567d65d3)"><path fill="#ffbd59" d="M 128.210938 198.835938 L 95.109375 231.9375 L 62.007812 198.835938 C 63.15625 198.425781 64.304688 198.015625 65.453125 197.648438 L 95.109375 227.304688 L 124.765625 197.648438 C 125.953125 198.015625 127.101562 198.425781 128.210938 198.835938 Z M 128.210938 198.835938 " fill-opacity="1" fill-rule="nonzero"/></g><g clip-path="url(#1d7dfe272c)"><path fill="#ffbd59" d="M 117.503906 195.554688 L 95.109375 217.949219 L 72.753906 195.554688 C 74.027344 195.269531 75.296875 194.980469 76.570312 194.734375 L 95.152344 213.316406 L 113.691406 194.734375 C 114.960938 194.980469 116.234375 195.269531 117.503906 195.554688 Z M 117.503906 195.554688 " fill-opacity="1" fill-rule="nonzero"/></g><g clip-path="url(#d82f4392d3)"><path fill="#ffbd59" d="M 105.570312 193.503906 L 95.109375 203.964844 L 84.652344 193.503906 C 86.085938 193.339844 87.480469 193.21875 88.917969 193.136719 L 95.109375 199.328125 L 101.304688 193.136719 C 102.738281 193.21875 104.175781 193.339844 105.570312 193.503906 Z M 105.570312 193.503906 " fill-opacity="1" fill-rule="nonzero"/></g><path fill="#ffbd59" d="M 85.226562 287.964844 L 23.167969 350.023438 C 22.429688 349.203125 21.730469 348.34375 21.074219 347.480469 L 80.628906 287.925781 L 21.035156 228.410156 C 21.730469 227.550781 22.429688 226.730469 23.125 225.867188 Z M 85.226562 287.964844 " fill-opacity="1" fill-rule="nonzero"/><path fill="#ffbd59" d="M 71.238281 287.964844 L 17.015625 342.148438 C 16.398438 341.246094 15.742188 340.304688 15.167969 339.359375 L 66.5625 287.964844 L 15.167969 236.574219 C 15.785156 235.628906 16.398438 234.726562 17.015625 233.785156 Z M 71.238281 287.964844 " fill-opacity="1" fill-rule="nonzero"/><path fill="#ffbd59" d="M 57.210938 287.964844 L 11.679688 333.496094 C 11.148438 332.46875 10.613281 331.484375 10.082031 330.460938 L 52.574219 287.964844 L 10.082031 245.472656 C 10.613281 244.449219 11.105469 243.421875 11.679688 242.4375 Z M 57.210938 287.964844 " fill-opacity="1" fill-rule="nonzero"/><path fill="#ffbd59" d="M 43.222656 287.964844 L 7.167969 324.019531 C 6.71875 322.914062 6.265625 321.804688 5.855469 320.699219 L 38.589844 287.964844 L 5.855469 255.234375 C 6.265625 254.128906 6.71875 252.980469 7.167969 251.914062 Z M 43.222656 287.964844 " fill-opacity="1" fill-rule="nonzero"/><path fill="#ffbd59" d="M 29.195312 287.964844 L 3.558594 313.601562 C 3.230469 312.371094 2.902344 311.140625 2.617188 309.910156 L 24.5625 287.964844 L 2.617188 266.023438 C 2.902344 264.792969 3.230469 263.5625 3.558594 262.332031 Z M 29.195312 287.964844 " fill-opacity="1" fill-rule="nonzero"/><path fill="#ffbd59" d="M 15.210938 287.964844 L 1.097656 302.035156 C 0.894531 300.683594 0.730469 299.289062 0.566406 297.933594 L 10.53125 287.964844 L 0.605469 278 C 0.730469 276.605469 0.933594 275.25 1.140625 273.898438 Z M 15.210938 287.964844 " fill-opacity="1" fill-rule="nonzero"/><path fill="#ffbd59" d="M 1.179688 287.964844 L 0.0742188 289.074219 C 0.0742188 288.703125 0.0742188 288.335938 0.0742188 287.964844 C 0.0742188 287.597656 0.0742188 287.226562 0.0742188 286.859375 Z M 1.179688 287.964844 " fill-opacity="1" fill-rule="nonzero"/><g clip-path="url(#ace7759d99)"><path fill="#00d3bd" d="M 162.335938 545.921875 C 161.558594 546.699219 160.777344 547.4375 159.957031 548.21875 L 95.109375 483.371094 L 30.261719 548.175781 C 29.441406 547.4375 28.664062 546.660156 27.882812 545.878906 L 95.109375 478.695312 Z M 162.335938 545.921875 " fill-opacity="1" fill-rule="nonzero"/></g><g clip-path="url(#f137b30b16)"><path fill="#00d3bd" d="M 154.953125 552.566406 C 154.09375 553.261719 153.230469 553.917969 152.371094 554.617188 L 95.109375 497.359375 L 37.890625 554.574219 C 37.03125 553.917969 36.128906 553.222656 35.308594 552.523438 L 95.152344 492.679688 Z M 154.953125 552.566406 " fill-opacity="1" fill-rule="nonzero"/></g><g clip-path="url(#c15efd00f3)"><path fill="#00d3bd" d="M 146.871094 558.429688 C 145.929688 559.046875 144.984375 559.660156 144 560.234375 L 95.109375 511.34375 L 46.21875 560.234375 C 45.273438 559.660156 44.289062 559.046875 43.347656 558.429688 L 95.070312 506.710938 Z M 146.871094 558.429688 " fill-opacity="1" fill-rule="nonzero"/></g><g clip-path="url(#dbc79b0d45)"><path fill="#00d3bd" d="M 137.972656 563.558594 C 136.945312 564.089844 135.878906 564.582031 134.855469 565.074219 L 95.152344 525.371094 L 55.445312 565.074219 C 54.378906 564.582031 53.355469 564.089844 52.328125 563.558594 L 95.191406 520.695312 Z M 137.972656 563.558594 " fill-opacity="1" fill-rule="nonzero"/></g><g clip-path="url(#44cf962723)"><path fill="#00d3bd" d="M 128.210938 567.824219 C 127.0625 568.234375 125.953125 568.644531 124.765625 569.015625 L 95.109375 539.359375 L 65.453125 569.015625 C 64.304688 568.644531 63.15625 568.234375 62.007812 567.824219 L 95.109375 534.722656 Z M 128.210938 567.824219 " fill-opacity="1" fill-rule="nonzero"/></g><g clip-path="url(#37eeccc4b2)"><path fill="#00d3bd" d="M 117.503906 571.105469 C 116.234375 571.394531 114.960938 571.679688 113.691406 571.925781 L 95.109375 553.34375 L 76.527344 571.925781 C 75.257812 571.679688 73.984375 571.394531 72.714844 571.105469 L 95.070312 548.710938 Z M 117.503906 571.105469 " fill-opacity="1" fill-rule="nonzero"/></g><g clip-path="url(#d3e80efb2e)"><path fill="#00d3bd" d="M 105.570312 573.199219 C 104.175781 573.363281 102.738281 573.484375 101.304688 573.566406 L 95.109375 567.375 L 88.917969 573.566406 C 87.480469 573.484375 86.046875 573.363281 84.652344 573.199219 L 95.109375 562.738281 Z M 105.570312 573.199219 " fill-opacity="1" fill-rule="nonzero"/></g><g clip-path="url(#bfbefa9562)"><path fill="#00d3bd" d="M 162.335938 411.507812 L 95.109375 478.734375 L 27.925781 411.507812 C 28.703125 410.730469 29.484375 409.992188 30.304688 409.210938 L 95.109375 474.058594 L 159.957031 409.210938 C 160.777344 409.949219 161.558594 410.730469 162.335938 411.507812 Z M 162.335938 411.507812 " fill-opacity="1" fill-rule="nonzero"/></g><g clip-path="url(#69daea1454)"><path fill="#00d3bd" d="M 154.953125 404.863281 L 95.109375 464.707031 L 35.265625 404.863281 C 36.128906 404.167969 36.988281 403.46875 37.851562 402.8125 L 95.070312 460.03125 L 152.328125 402.8125 C 153.230469 403.46875 154.09375 404.167969 154.953125 404.863281 Z M 154.953125 404.863281 " fill-opacity="1" fill-rule="nonzero"/></g><g clip-path="url(#bb7c7b50f1)"><path fill="#00d3bd" d="M 146.871094 398.957031 L 95.109375 450.679688 L 43.386719 398.957031 C 44.332031 398.34375 45.273438 397.726562 46.257812 397.152344 L 95.152344 446.046875 L 144.042969 397.152344 C 144.984375 397.769531 145.929688 398.34375 146.871094 398.957031 Z M 146.871094 398.957031 " fill-opacity="1" fill-rule="nonzero"/></g><g clip-path="url(#13fb784a24)"><path fill="#00d3bd" d="M 137.972656 393.832031 L 95.109375 436.695312 L 52.289062 393.832031 C 53.3125 393.296875 54.378906 392.804688 55.40625 392.3125 L 95.109375 432.019531 L 134.8125 392.3125 C 135.878906 392.804688 136.945312 393.339844 137.972656 393.832031 Z M 137.972656 393.832031 " fill-opacity="1" fill-rule="nonzero"/></g><g clip-path="url(#6602f0a0d4)"><path fill="#00d3bd" d="M 128.210938 389.605469 L 95.109375 422.707031 L 62.007812 389.605469 C 63.15625 389.195312 64.304688 388.785156 65.453125 388.417969 L 95.109375 418.070312 L 124.765625 388.417969 C 125.953125 388.746094 127.101562 389.15625 128.210938 389.605469 Z M 128.210938 389.605469 " fill-opacity="1" fill-rule="nonzero"/></g><g clip-path="url(#e904b0ec97)"><path fill="#00d3bd" d="M 117.503906 386.324219 L 95.109375 408.71875 L 72.714844 386.324219 C 73.984375 386.039062 75.257812 385.75 76.527344 385.503906 L 95.109375 404.085938 L 113.691406 385.464844 C 114.960938 385.710938 116.234375 385.996094 117.503906 386.324219 Z M 117.503906 386.324219 " fill-opacity="1" fill-rule="nonzero"/></g><g clip-path="url(#f5929386c5)"><path fill="#00d3bd" d="M 105.570312 384.234375 L 95.109375 394.691406 L 84.652344 384.234375 C 86.085938 384.070312 87.480469 383.945312 88.917969 383.863281 L 95.109375 390.058594 L 101.304688 383.863281 C 102.738281 383.945312 104.175781 384.070312 105.570312 384.234375 Z M 105.570312 384.234375 " fill-opacity="1" fill-rule="nonzero"/></g><path fill="#00d3bd" d="M 85.226562 478.695312 L 23.167969 540.792969 C 22.429688 539.972656 21.730469 539.113281 21.074219 538.25 L 80.628906 478.695312 L 21.035156 419.179688 C 21.730469 418.316406 22.429688 417.496094 23.125 416.636719 Z M 85.226562 478.695312 " fill-opacity="1" fill-rule="nonzero"/><path fill="#00d3bd" d="M 71.238281 478.695312 L 17.015625 532.878906 C 16.398438 531.976562 15.742188 531.03125 15.167969 530.089844 L 66.5625 478.695312 L 15.167969 427.300781 C 15.785156 426.355469 16.398438 425.453125 17.015625 424.511719 Z M 71.238281 478.695312 " fill-opacity="1" fill-rule="nonzero"/><path fill="#00d3bd" d="M 57.210938 478.695312 L 11.679688 524.222656 C 11.148438 523.199219 10.613281 522.214844 10.082031 521.1875 L 52.574219 478.695312 L 10.082031 436.203125 C 10.613281 435.175781 11.105469 434.152344 11.679688 433.167969 Z M 57.210938 478.695312 " fill-opacity="1" fill-rule="nonzero"/><path fill="#00d3bd" d="M 43.222656 478.695312 L 7.167969 514.75 C 6.71875 513.640625 6.265625 512.535156 5.855469 511.425781 L 38.589844 478.695312 L 5.855469 445.964844 C 6.265625 444.855469 6.71875 443.707031 7.167969 442.601562 Z M 43.222656 478.695312 " fill-opacity="1" fill-rule="nonzero"/><path fill="#00d3bd" d="M 29.195312 478.695312 L 3.558594 504.332031 C 3.230469 503.101562 2.902344 501.871094 2.617188 500.640625 L 24.5625 478.695312 L 2.617188 456.75 C 2.902344 455.519531 3.230469 454.289062 3.558594 453.058594 Z M 29.195312 478.695312 " fill-opacity="1" fill-rule="nonzero"/><path fill="#00d3bd" d="M 15.210938 478.695312 L 1.140625 492.761719 C 0.933594 491.410156 0.769531 490.015625 0.605469 488.621094 L 10.574219 478.652344 L 0.605469 468.726562 C 0.730469 467.332031 0.933594 465.980469 1.140625 464.625 Z M 15.210938 478.695312 " fill-opacity="1" fill-rule="nonzero"/><path fill="#00d3bd" d="M 1.179688 478.695312 L 0.0742188 479.800781 C 0.0742188 479.433594 0.0742188 479.0625 0.0742188 478.695312 C 0.0742188 478.324219 0.0742188 477.957031 0.0742188 477.585938 Z M 1.179688 478.695312 " fill-opacity="1" fill-rule="nonzero"/><g clip-path="url(#dfe0bff498)"><g clip-path="url(#14aa80da51)"><path fill="#f0ead8" d="M 48.285156 585.992188 L 56.996094 585.992188 L 56.996094 594.46875 L 48.285156 594.46875 Z M 48.285156 585.992188 " fill-opacity="1" fill-rule="nonzero"/></g></g></svg>