<svg xmlns="http://www.w3.org/2000/svg" xmlns:xlink="http://www.w3.org/1999/xlink" width="936" zoomAndPan="magnify" viewBox="0 0 702 446.25" height="595" preserveAspectRatio="xMidYMid meet" version="1.0"><defs><clipPath id="796db8fc3a"><path d="M 0.59375 1 L 700 1 L 700 441 L 0.59375 441 Z M 0.59375 1 " clip-rule="nonzero"/></clipPath><clipPath id="97134220f5"><path d="M 14.476562 10 L 686 10 L 686 433 L 14.476562 433 Z M 14.476562 10 " clip-rule="nonzero"/></clipPath></defs><g clip-path="url(#796db8fc3a)"><path fill="#a31621" d="M 699.117188 221.101562 C 699.117188 162.808594 675.964844 106.894531 634.738281 65.667969 C 593.507812 24.441406 537.59375 1.285156 479.304688 1.285156 C 396.914062 1.285156 23.386719 1.285156 23.386719 1.285156 C 9.90625 1.285156 -1.035156 12.226562 -1.035156 25.710938 L -1.035156 416.492188 C -1.035156 429.976562 9.90625 440.917969 23.386719 440.917969 C 23.386719 440.917969 396.914062 440.917969 479.304688 440.917969 C 537.59375 440.917969 593.507812 417.765625 634.738281 376.535156 C 675.964844 335.308594 699.117188 279.394531 699.117188 221.101562 Z M 699.117188 221.101562 " fill-opacity="1" fill-rule="evenodd"/></g><g clip-path="url(#97134220f5)"><path fill="#ffffff" d="M 685.292969 221.164062 C 685.292969 165.183594 663.058594 111.488281 623.464844 71.894531 C 583.871094 32.304688 530.175781 10.066406 474.195312 10.066406 C 395.074219 10.066406 36.367188 10.066406 36.367188 10.066406 C 23.417969 10.066406 12.910156 20.574219 12.910156 33.523438 L 12.910156 408.804688 C 12.910156 421.753906 23.417969 432.261719 36.367188 432.261719 C 36.367188 432.261719 395.074219 432.261719 474.195312 432.261719 C 530.175781 432.261719 583.871094 410.027344 623.464844 370.433594 C 663.058594 330.839844 685.292969 277.144531 685.292969 221.164062 Z M 685.292969 221.164062 " fill-opacity="1" fill-rule="evenodd"/></g></svg>