<svg xmlns="http://www.w3.org/2000/svg" xmlns:xlink="http://www.w3.org/1999/xlink" width="936" zoomAndPan="magnify" viewBox="0 0 702 446.25" height="595" preserveAspectRatio="xMidYMid meet" version="1.0"><defs><clipPath id="d26be640ae"><path d="M 2 4 L 700.742188 4 L 700.742188 445 L 2 445 Z M 2 4 " clip-rule="nonzero"/></clipPath><clipPath id="0096b588fb"><path d="M 16 13 L 686.859375 13 L 686.859375 436 L 16 436 Z M 16 13 " clip-rule="nonzero"/></clipPath><clipPath id="b525e29f83"><path d="M 116.359375 78 L 272.613281 78 L 272.613281 231.773438 L 116.359375 231.773438 Z M 116.359375 78 " clip-rule="nonzero"/></clipPath><clipPath id="4bd1a67ced"><path d="M 116.875 213.511719 C 118.449219 203.328125 119.046875 201.308594 119.644531 199.0625 C 120.394531 196.441406 121.367188 193.519531 122.265625 190.824219 C 123.089844 188.207031 123.839844 185.507812 124.8125 183.039062 C 125.710938 180.792969 126.683594 178.769531 127.730469 176.75 C 128.707031 174.652344 129.828125 172.554688 130.953125 170.535156 C 132.148438 168.511719 133.347656 166.492188 134.621094 164.546875 C 135.96875 162.597656 137.390625 160.800781 138.8125 158.78125 C 140.3125 156.609375 141.808594 154.136719 143.382812 151.964844 C 144.878906 149.945312 146.527344 147.996094 148.097656 146.125 C 149.59375 144.253906 150.941406 142.457031 152.441406 140.734375 C 153.9375 139.011719 155.4375 137.367188 157.007812 135.792969 C 158.582031 134.070312 160.226562 132.574219 161.800781 130.851562 C 163.445312 129.128906 164.871094 127.109375 166.667969 125.386719 C 168.390625 123.664062 170.410156 122.089844 172.28125 120.519531 C 174.078125 119.019531 175.800781 117.597656 177.523438 116.101562 C 179.320312 114.605469 181.117188 113.105469 182.988281 111.609375 C 185.011719 109.886719 187.332031 108.015625 189.429688 106.441406 C 191.375 105.019531 193.171875 103.898438 195.117188 102.550781 C 197.140625 101.203125 199.164062 99.777344 201.183594 98.507812 C 203.128906 97.308594 205.300781 96.035156 207.023438 94.988281 C 208.371094 94.238281 209.792969 93.5625 210.691406 92.964844 C 211.367188 92.589844 211.515625 92.367188 212.191406 91.917969 C 213.539062 91.09375 216.160156 89.671875 218.179688 88.621094 C 220.203125 87.5 222.296875 86.375 224.46875 85.402344 C 226.566406 84.429688 228.960938 83.382812 230.757812 82.855469 C 232.105469 82.40625 233.53125 82.257812 234.429688 81.957031 C 234.953125 81.808594 235.027344 81.660156 235.625 81.507812 C 236.898438 81.058594 240.042969 80.160156 242.289062 79.789062 C 244.535156 79.339844 246.78125 79.1875 249.027344 78.964844 C 251.273438 78.8125 253.519531 78.363281 255.765625 78.515625 C 258.089844 78.664062 260.484375 78.964844 262.65625 79.863281 C 265.050781 80.835938 268.046875 82.40625 269.695312 84.355469 C 271.117188 86.152344 271.789062 88.472656 272.164062 90.867188 C 272.613281 93.414062 272.914062 96.933594 271.863281 99.179688 C 270.964844 101.277344 268.644531 102.773438 266.773438 104.195312 C 264.902344 105.542969 262.804688 106.367188 260.707031 107.414062 C 258.613281 108.464844 255.917969 109.738281 254.121094 110.484375 C 252.921875 111.011719 252.023438 111.160156 251.050781 111.757812 C 249.925781 112.433594 249.101562 113.480469 247.832031 114.378906 C 246.257812 115.652344 244.160156 117.074219 242.289062 118.496094 C 240.191406 119.996094 237.871094 121.71875 235.777344 123.214844 C 233.828125 124.636719 231.957031 125.910156 230.085938 127.332031 C 228.214844 128.679688 226.492188 130.101562 224.542969 131.449219 C 222.597656 132.875 220.425781 134.144531 218.480469 135.492188 C 216.53125 136.839844 214.734375 138.113281 212.863281 139.386719 C 210.992188 140.734375 209.195312 141.933594 207.25 143.28125 C 205.152344 144.703125 203.054688 146.277344 200.734375 147.847656 C 198.265625 149.644531 195.34375 151.589844 192.796875 153.390625 C 190.476562 154.960938 188.457031 156.160156 186.207031 157.882812 C 183.738281 159.828125 180.96875 162.375 178.796875 164.46875 C 176.851562 166.191406 175.351562 167.613281 173.628906 169.410156 C 171.683594 171.433594 169.585938 173.902344 167.714844 176 C 166.144531 177.796875 164.71875 179.519531 163.222656 181.242188 C 161.800781 182.890625 160.226562 184.460938 158.804688 186.257812 C 157.15625 188.28125 155.660156 190.601562 154.089844 192.773438 C 152.589844 194.867188 151.09375 197.039062 149.746094 199.136719 C 148.472656 201.082031 147.347656 202.878906 146.226562 204.976562 C 145.101562 207.148438 144.203125 209.769531 143.082031 211.941406 C 141.957031 214.113281 140.386719 215.910156 139.488281 218.15625 C 138.589844 220.402344 138.664062 223.84375 137.765625 225.269531 C 137.242188 226.089844 136.117188 226.242188 135.820312 226.765625 C 135.519531 227.140625 135.667969 227.589844 135.519531 227.964844 C 135.371094 228.335938 135.144531 228.710938 134.921875 229.085938 C 134.695312 229.386719 134.394531 229.683594 134.097656 229.984375 C 133.722656 230.285156 133.421875 230.507812 133.046875 230.660156 C 132.675781 230.882812 132.300781 231.035156 131.851562 231.109375 C 131.476562 231.183594 131.027344 231.257812 130.652344 231.257812 C 130.203125 231.257812 129.753906 231.183594 129.378906 231.109375 C 129.15625 231.035156 128.855469 230.808594 128.707031 230.808594 C 128.628906 230.808594 128.554688 230.808594 128.480469 230.882812 C 128.257812 230.882812 127.582031 231.035156 127.582031 231.035156 C 127.507812 231.035156 126.910156 231.035156 126.609375 231.035156 C 126.308594 231.035156 125.636719 231.035156 125.636719 231.035156 C 125.636719 231.035156 125.035156 230.882812 124.738281 230.808594 C 124.363281 230.734375 123.765625 230.507812 123.765625 230.507812 C 123.765625 230.507812 123.238281 230.210938 122.941406 230.058594 C 122.640625 229.910156 122.117188 229.609375 122.117188 229.609375 C 122.117188 229.609375 121.667969 229.160156 121.367188 228.9375 C 121.144531 228.710938 120.695312 228.335938 120.695312 228.335938 C 120.695312 228.261719 120.320312 227.738281 120.171875 227.515625 C 120.019531 227.214844 119.644531 226.691406 119.644531 226.691406 C 119.644531 226.691406 119.570312 226.464844 119.421875 226.167969 C 119.121094 225.191406 117.550781 222.347656 117.101562 220.328125 C 116.652344 218.15625 116.875 213.511719 116.875 213.511719 M 169.289062 152.714844 C 170.335938 151.742188 170.410156 151.667969 170.410156 151.589844 C 170.410156 151.589844 170.335938 151.441406 170.335938 151.441406 C 170.335938 151.367188 170.335938 151.367188 170.335938 151.367188 C 170.261719 151.367188 169.738281 152.117188 169.511719 152.414062 C 169.4375 152.488281 169.289062 152.714844 169.289062 152.714844 " clip-rule="nonzero"/></clipPath></defs><g clip-path="url(#d26be640ae)"><path fill="#a31621" d="M 2.214844 224.363281 C 2.214844 282.65625 25.367188 338.570312 66.597656 379.800781 C 107.824219 421.027344 163.738281 444.179688 222.03125 444.179688 C 304.421875 444.179688 677.945312 444.179688 677.945312 444.179688 C 691.425781 444.179688 702.371094 433.238281 702.371094 419.757812 L 702.371094 28.972656 C 702.371094 15.488281 691.425781 4.546875 677.945312 4.546875 C 677.945312 4.546875 304.421875 4.546875 222.03125 4.546875 C 163.738281 4.546875 107.824219 27.703125 66.597656 68.929688 C 25.367188 110.15625 2.214844 166.074219 2.214844 224.363281 Z M 2.214844 224.363281 " fill-opacity="1" fill-rule="evenodd"/></g><g clip-path="url(#0096b588fb)"><path fill="#c90a19" d="M 16.039062 224.300781 C 16.039062 280.28125 38.277344 333.976562 77.867188 373.570312 C 117.460938 413.164062 171.15625 435.398438 227.136719 435.398438 C 306.257812 435.398438 664.964844 435.398438 664.964844 435.398438 C 677.914062 435.398438 688.421875 424.890625 688.421875 411.941406 L 688.421875 36.660156 C 688.421875 23.714844 677.914062 13.207031 664.964844 13.207031 C 664.964844 13.207031 306.257812 13.207031 227.136719 13.207031 C 171.15625 13.207031 117.460938 35.441406 77.867188 75.03125 C 38.277344 114.625 16.039062 168.320312 16.039062 224.300781 Z M 16.039062 224.300781 " fill-opacity="1" fill-rule="evenodd"/></g><g clip-path="url(#b525e29f83)"><g clip-path="url(#4bd1a67ced)"><path fill="#ffffff" d="M 113.878906 75.519531 L 275.09375 75.519531 L 275.09375 234.253906 L 113.878906 234.253906 Z M 113.878906 75.519531 " fill-opacity="1" fill-rule="nonzero"/></g></g></svg>