<svg xmlns="http://www.w3.org/2000/svg" xmlns:xlink="http://www.w3.org/1999/xlink" width="885" zoomAndPan="magnify" viewBox="0 0 663.75 485.999983" height="648" preserveAspectRatio="xMidYMid meet" version="1.0"><defs><g/><clipPath id="215437c6ce"><path d="M 196.367188 257 L 329 257 L 329 325 L 196.367188 325 Z M 196.367188 257 " clip-rule="nonzero"/></clipPath><clipPath id="48651a763a"><path d="M 340 244 L 475 244 L 475 330.511719 L 340 330.511719 Z M 340 244 " clip-rule="nonzero"/></clipPath></defs><g fill="#000000" fill-opacity="1"><g transform="translate(248.033683, 274.733383)"><g><path d="M 80.484375 -150.984375 C 74.566406 -150.984375 68.910156 -148.0625 63.515625 -142.21875 C 58.117188 -136.382812 54.164062 -130.582031 51.65625 -124.8125 L 47.890625 -116.171875 L 13.078125 -133.015625 C 13.523438 -134.492188 14.265625 -136.414062 15.296875 -138.78125 C 16.328125 -141.144531 18.765625 -145.394531 22.609375 -151.53125 C 26.453125 -157.664062 30.703125 -163.0625 35.359375 -167.71875 C 40.015625 -172.375 46.367188 -176.625 54.421875 -180.46875 C 62.484375 -184.3125 71.171875 -186.234375 80.484375 -186.234375 C 92.453125 -186.234375 102.90625 -184.71875 111.84375 -181.6875 C 120.789062 -178.65625 127.703125 -174.882812 132.578125 -170.375 C 137.453125 -165.863281 141.40625 -160.539062 144.4375 -154.40625 C 147.46875 -148.28125 149.390625 -142.703125 150.203125 -137.671875 C 151.015625 -132.648438 151.421875 -127.40625 151.421875 -121.9375 C 151.421875 -113.957031 149.203125 -105.566406 144.765625 -96.765625 C 140.335938 -87.972656 134.984375 -80.140625 128.703125 -73.265625 C 122.421875 -66.398438 116.097656 -60.117188 109.734375 -54.421875 C 103.378906 -48.734375 97.988281 -44.335938 93.5625 -41.234375 L 86.90625 -36.578125 L 154.75 -36.578125 L 154.75 0 L 12.1875 0 L 12.1875 -10.421875 C 14.707031 -12.492188 18.109375 -15.335938 22.390625 -18.953125 C 26.679688 -22.578125 34.21875 -29.488281 45 -39.6875 C 55.789062 -49.882812 65.320312 -59.453125 73.59375 -68.390625 C 81.875 -77.335938 89.414062 -86.910156 96.21875 -97.109375 C 103.019531 -107.304688 106.421875 -115.582031 106.421875 -121.9375 C 106.421875 -124.445312 106.160156 -126.957031 105.640625 -129.46875 C 105.117188 -131.988281 104.117188 -135.054688 102.640625 -138.671875 C 101.171875 -142.296875 98.515625 -145.253906 94.671875 -147.546875 C 90.828125 -149.835938 86.097656 -150.984375 80.484375 -150.984375 Z M 80.484375 -150.984375 "/></g></g></g><g clip-path="url(#215437c6ce)"><path fill="#000000" d="M 326.847656 324.335938 C 290.570312 323.988281 261.082031 321.289062 239.222656 316.335938 C 220.414062 312.089844 207.636719 306.289062 201.25 299.113281 C 197.910156 295.363281 196.4375 291.339844 196.859375 287.164062 C 197.910156 277.089844 208.6875 269.867188 217.542969 265.59375 C 227.148438 260.941406 238.550781 257.816406 244.863281 257.117188 C 245.6875 257.019531 246.433594 257.617188 246.507812 258.441406 C 246.609375 259.269531 246.011719 260.019531 245.1875 260.09375 C 240.273438 260.644531 229.21875 263.265625 218.839844 268.292969 C 204.046875 275.441406 200.351562 282.691406 199.855469 287.492188 C 199.503906 290.789062 200.726562 294.015625 203.496094 297.113281 C 211.207031 305.765625 237.476562 320.4375 326.871094 321.3125 C 327.695312 321.3125 328.367188 321.988281 328.34375 322.835938 C 328.34375 323.664062 327.671875 324.335938 326.847656 324.335938 Z M 326.847656 324.335938 " fill-opacity="1" fill-rule="nonzero"/></g><g clip-path="url(#48651a763a)"><path fill="#000000" d="M 341.867188 330.511719 C 341.042969 330.511719 340.371094 329.863281 340.371094 329.035156 C 340.371094 328.210938 341.019531 327.535156 341.839844 327.511719 C 369.734375 327.210938 398.777344 323.664062 421.554688 317.789062 C 448.375 310.863281 465.191406 301.238281 470.132812 289.914062 C 472.078125 285.464844 471.480469 280.492188 468.386719 275.492188 C 465.367188 270.617188 458.53125 263.515625 443.085938 257.46875 C 428.367188 251.695312 409.40625 248.242188 386.675781 247.195312 C 385.851562 247.144531 385.203125 246.445312 385.253906 245.617188 C 385.304688 244.792969 386.003906 244.144531 386.824219 244.195312 C 409.878906 245.269531 429.191406 248.792969 444.183594 254.691406 C 457.007812 259.71875 466.265625 266.367188 470.929688 273.941406 C 474.523438 279.714844 475.195312 285.839844 472.875 291.140625 C 470.058594 297.589844 463.871094 303.488281 454.511719 308.664062 C 446.179688 313.289062 435.328125 317.335938 422.304688 320.6875 C 399.300781 326.613281 369.984375 330.210938 341.867188 330.511719 Z M 341.867188 330.511719 " fill-opacity="1" fill-rule="nonzero"/></g><path fill="#000000" d="M 349.449219 309.988281 C 334.632812 309.988281 317.789062 309.214844 299.054688 307.6875 C 298.230469 307.613281 297.605469 306.886719 297.679688 306.0625 C 297.757812 305.238281 298.480469 304.640625 299.304688 304.6875 C 342.015625 308.1875 374.625 307.6875 396.179688 303.1875 C 412.148438 299.863281 421.753906 294.214844 423.226562 287.289062 C 423.699219 285.066406 423.550781 281.589844 420.234375 277.515625 C 417.863281 274.589844 414.292969 272.117188 410.703125 270.84375 C 409.929688 270.566406 409.503906 269.71875 409.777344 268.941406 C 410.054688 268.167969 410.902344 267.742188 411.675781 268.015625 C 420.03125 270.941406 427.941406 279.390625 426.121094 287.914062 C 423.898438 298.363281 408.929688 303.589844 396.753906 306.140625 C 384.457031 308.6875 368.636719 309.988281 349.449219 309.988281 Z M 349.449219 309.988281 " fill-opacity="1" fill-rule="nonzero"/><path fill="#000000" d="M 265.246094 298.6875 C 265.222656 298.6875 265.195312 298.6875 265.171875 298.6875 C 265.070312 298.6875 255.992188 298.214844 247.007812 296.765625 C 233.859375 294.664062 227.722656 291.691406 227.722656 287.441406 C 227.722656 283.691406 230.691406 280.414062 236.554688 277.691406 C 240.621094 275.816406 244.636719 274.890625 244.8125 274.839844 C 245.613281 274.667969 246.410156 275.167969 246.609375 275.964844 C 246.785156 276.765625 246.285156 277.566406 245.488281 277.765625 C 245.410156 277.792969 241.570312 278.667969 237.777344 280.414062 C 234.558594 281.914062 230.714844 284.339844 230.742188 287.414062 C 230.742188 288.039062 231.566406 291.214844 247.484375 293.765625 C 256.316406 295.191406 265.273438 295.640625 265.347656 295.640625 C 266.167969 295.691406 266.820312 296.390625 266.769531 297.214844 C 266.695312 298.0625 266.019531 298.6875 265.246094 298.6875 Z M 265.246094 298.6875 " fill-opacity="1" fill-rule="nonzero"/><path fill="#000000" d="M 283.035156 252.820312 C 282.335938 252.820312 281.714844 252.34375 281.5625 251.617188 C 281.390625 250.820312 281.914062 250.019531 282.738281 249.84375 C 283.035156 249.769531 313.425781 243.542969 347.105469 244.167969 C 347.929688 244.195312 348.578125 244.871094 348.578125 245.695312 C 348.554688 246.519531 347.902344 247.167969 347.082031 247.167969 L 347.054688 247.167969 C 313.722656 246.570312 283.660156 252.71875 283.359375 252.792969 C 283.234375 252.820312 283.136719 252.820312 283.035156 252.820312 Z M 283.035156 252.820312 " fill-opacity="1" fill-rule="nonzero"/><g fill="#000000" fill-opacity="1"><g transform="translate(47.387306, 412.470831)"><g><path d="M 3.890625 13.21875 L 19.09375 5.765625 C 21.894531 10.390625 26.757812 12.703125 33.6875 12.703125 C 36.90625 12.703125 39.894531 11.664062 42.65625 9.59375 C 45.425781 7.53125 46.8125 4.367188 46.8125 0.109375 L 46.8125 -3.890625 C 43.519531 -0.242188 37.640625 1.578125 29.171875 1.578125 C 21.410156 1.578125 15.007812 -1.164062 9.96875 -6.65625 C 4.925781 -12.15625 2.40625 -18.890625 2.40625 -26.859375 C 2.40625 -34.835938 4.925781 -41.59375 9.96875 -47.125 C 15.007812 -52.65625 21.410156 -55.421875 29.171875 -55.421875 C 36.097656 -55.421875 41.875 -53.285156 46.5 -49.015625 L 46.8125 -49.015625 L 46.8125 -53.84375 L 65.390625 -53.84375 L 65.390625 1.46875 C 65.390625 10.21875 62.484375 16.96875 56.671875 21.71875 C 50.867188 26.476562 43.207031 28.859375 33.6875 28.859375 C 18.289062 28.859375 8.359375 23.644531 3.890625 13.21875 Z M 25.765625 -36 C 23.347656 -33.625 22.140625 -30.582031 22.140625 -26.875 C 22.140625 -23.164062 23.296875 -20.140625 25.609375 -17.796875 C 27.921875 -15.453125 30.960938 -14.28125 34.734375 -14.28125 C 38.378906 -14.28125 41.375 -15.46875 43.71875 -17.84375 C 46.0625 -20.21875 47.234375 -23.226562 47.234375 -26.875 C 47.234375 -30.582031 46.023438 -33.625 43.609375 -36 C 41.191406 -38.375 38.234375 -39.5625 34.734375 -39.5625 C 31.171875 -39.5625 28.179688 -38.375 25.765625 -36 Z M 25.765625 -36 "/></g></g></g><g fill="#000000" fill-opacity="1"><g transform="translate(113.827332, 412.470831)"><g><path d="M 23.828125 -53.84375 L 23.828125 -28.234375 C 23.828125 -22.910156 24.628906 -19.128906 26.234375 -16.890625 C 27.847656 -14.648438 30.578125 -13.53125 34.421875 -13.53125 C 38.273438 -13.53125 41.003906 -14.648438 42.609375 -16.890625 C 44.222656 -19.128906 45.03125 -22.910156 45.03125 -28.234375 L 45.03125 -53.84375 L 63.59375 -53.84375 L 63.59375 -23.71875 C 63.59375 -14.757812 61.265625 -8.300781 56.609375 -4.34375 C 51.960938 -0.394531 44.566406 1.578125 34.421875 1.578125 C 24.273438 1.578125 16.875 -0.394531 12.21875 -4.34375 C 7.570312 -8.300781 5.25 -14.757812 5.25 -23.71875 L 5.25 -53.84375 Z M 23.828125 -53.84375 "/></g></g></g><g fill="#000000" fill-opacity="1"><g transform="translate(177.433427, 412.470831)"><g><path d="M 60.765625 -24.34375 L 21.71875 -24.34375 C 21.71875 -20.570312 22.941406 -17.773438 25.390625 -15.953125 C 27.847656 -14.128906 30.507812 -13.21875 33.375 -13.21875 C 36.382812 -13.21875 38.765625 -13.617188 40.515625 -14.421875 C 42.265625 -15.234375 44.257812 -16.828125 46.5 -19.203125 L 59.921875 -12.484375 C 54.328125 -3.109375 45.023438 1.578125 32.015625 1.578125 C 23.898438 1.578125 16.9375 -1.203125 11.125 -6.765625 C 5.3125 -12.328125 2.40625 -19.023438 2.40625 -26.859375 C 2.40625 -34.703125 5.3125 -41.421875 11.125 -47.015625 C 16.9375 -52.617188 23.898438 -55.421875 32.015625 -55.421875 C 40.546875 -55.421875 47.488281 -52.953125 52.84375 -48.015625 C 58.195312 -43.078125 60.875 -36.03125 60.875 -26.875 C 60.875 -25.613281 60.835938 -24.769531 60.765625 -24.34375 Z M 22.25 -34.640625 L 42.71875 -34.640625 C 42.300781 -37.429688 41.195312 -39.578125 39.40625 -41.078125 C 37.625 -42.585938 35.332031 -43.34375 32.53125 -43.34375 C 29.457031 -43.34375 27.007812 -42.535156 25.1875 -40.921875 C 23.363281 -39.316406 22.382812 -37.222656 22.25 -34.640625 Z M 22.25 -34.640625 "/></g></g></g><g fill="#000000" fill-opacity="1"><g transform="translate(235.476607, 412.470831)"><g><path d="M 29.703125 -55.421875 C 32.773438 -55.421875 35.816406 -55.066406 38.828125 -54.359375 C 41.835938 -53.660156 44.078125 -52.960938 45.546875 -52.265625 L 47.75 -51.21875 L 41.671875 -39.046875 C 37.472656 -41.285156 33.484375 -42.40625 29.703125 -42.40625 C 27.597656 -42.40625 26.109375 -42.175781 25.234375 -41.71875 C 24.359375 -41.257812 23.921875 -40.398438 23.921875 -39.140625 C 23.921875 -38.867188 23.957031 -38.59375 24.03125 -38.3125 C 24.101562 -38.03125 24.242188 -37.765625 24.453125 -37.515625 C 24.660156 -37.273438 24.851562 -37.066406 25.03125 -36.890625 C 25.207031 -36.710938 25.503906 -36.519531 25.921875 -36.3125 C 26.335938 -36.101562 26.664062 -35.945312 26.90625 -35.84375 C 27.15625 -35.738281 27.5625 -35.578125 28.125 -35.359375 C 28.6875 -35.148438 29.109375 -34.992188 29.390625 -34.890625 C 29.671875 -34.785156 30.140625 -34.628906 30.796875 -34.421875 C 31.460938 -34.210938 31.972656 -34.070312 32.328125 -34 C 34.492188 -33.375 36.378906 -32.675781 37.984375 -31.90625 C 39.597656 -31.132812 41.296875 -30.082031 43.078125 -28.75 C 44.867188 -27.425781 46.253906 -25.75 47.234375 -23.71875 C 48.210938 -21.6875 48.703125 -19.378906 48.703125 -16.796875 C 48.703125 -4.546875 40.195312 1.578125 23.1875 1.578125 C 19.34375 1.578125 15.6875 0.984375 12.21875 -0.203125 C 8.757812 -1.398438 6.257812 -2.59375 4.71875 -3.78125 L 2.40625 -5.671875 L 9.96875 -18.359375 C 10.53125 -17.867188 11.265625 -17.289062 12.171875 -16.625 C 13.078125 -15.96875 14.71875 -15.0625 17.09375 -13.90625 C 19.476562 -12.75 21.546875 -12.171875 23.296875 -12.171875 C 27.148438 -12.171875 29.078125 -13.46875 29.078125 -16.0625 C 29.078125 -17.25 28.585938 -18.175781 27.609375 -18.84375 C 26.628906 -19.507812 24.960938 -20.257812 22.609375 -21.09375 C 20.265625 -21.9375 18.429688 -22.707031 17.109375 -23.40625 C 13.742188 -25.15625 11.082031 -27.128906 9.125 -29.328125 C 7.164062 -31.535156 6.1875 -34.457031 6.1875 -38.09375 C 6.1875 -43.550781 8.300781 -47.800781 12.53125 -50.84375 C 16.769531 -53.894531 22.492188 -55.421875 29.703125 -55.421875 Z M 29.703125 -55.421875 "/></g></g></g><g fill="#000000" fill-opacity="1"><g transform="translate(281.86917, 412.470831)"><g><path d="M 9.453125 -53.84375 L 9.453125 -73.890625 L 28.015625 -73.890625 L 28.015625 -53.84375 L 39.359375 -53.84375 L 39.359375 -39.671875 L 28.015625 -39.671875 L 28.015625 -22.5625 C 28.015625 -17.59375 29.414062 -15.109375 32.21875 -15.109375 C 32.914062 -15.109375 33.648438 -15.25 34.421875 -15.53125 C 35.191406 -15.8125 35.785156 -16.09375 36.203125 -16.375 L 36.84375 -16.796875 L 41.453125 -1.78125 C 37.460938 0.457031 32.914062 1.578125 27.8125 1.578125 C 24.3125 1.578125 21.300781 0.96875 18.78125 -0.25 C 16.269531 -1.476562 14.363281 -3.125 13.0625 -5.1875 C 11.769531 -7.257812 10.84375 -9.429688 10.28125 -11.703125 C 9.726562 -13.972656 9.453125 -16.40625 9.453125 -19 L 9.453125 -39.671875 L 1.671875 -39.671875 L 1.671875 -53.84375 Z M 9.453125 -53.84375 "/></g></g></g><g fill="#000000" fill-opacity="1"><g transform="translate(318.080566, 412.470831)"><g/></g></g><g fill="#000000" fill-opacity="1"><g transform="translate(341.486773, 412.470831)"><g><path d="M 9.453125 -53.84375 L 9.453125 -73.890625 L 28.015625 -73.890625 L 28.015625 -53.84375 L 39.359375 -53.84375 L 39.359375 -39.671875 L 28.015625 -39.671875 L 28.015625 -22.5625 C 28.015625 -17.59375 29.414062 -15.109375 32.21875 -15.109375 C 32.914062 -15.109375 33.648438 -15.25 34.421875 -15.53125 C 35.191406 -15.8125 35.785156 -16.09375 36.203125 -16.375 L 36.84375 -16.796875 L 41.453125 -1.78125 C 37.460938 0.457031 32.914062 1.578125 27.8125 1.578125 C 24.3125 1.578125 21.300781 0.96875 18.78125 -0.25 C 16.269531 -1.476562 14.363281 -3.125 13.0625 -5.1875 C 11.769531 -7.257812 10.84375 -9.429688 10.28125 -11.703125 C 9.726562 -13.972656 9.453125 -16.40625 9.453125 -19 L 9.453125 -39.671875 L 1.671875 -39.671875 L 1.671875 -53.84375 Z M 9.453125 -53.84375 "/></g></g></g><g fill="#000000" fill-opacity="1"><g transform="translate(377.698169, 412.470831)"><g><path d="M 9.96875 -6.65625 C 4.925781 -12.15625 2.40625 -18.890625 2.40625 -26.859375 C 2.40625 -34.835938 4.925781 -41.59375 9.96875 -47.125 C 15.007812 -52.65625 21.410156 -55.421875 29.171875 -55.421875 C 36.304688 -55.421875 42.1875 -53.179688 46.8125 -48.703125 L 46.8125 -53.84375 L 65.390625 -53.84375 L 65.390625 0 L 47.015625 0 L 47.015625 -6.09375 L 46.8125 -6.09375 C 42.1875 -0.976562 36.304688 1.578125 29.171875 1.578125 C 21.410156 1.578125 15.007812 -1.164062 9.96875 -6.65625 Z M 25.765625 -36 C 23.347656 -33.625 22.140625 -30.582031 22.140625 -26.875 C 22.140625 -23.164062 23.296875 -20.140625 25.609375 -17.796875 C 27.921875 -15.453125 30.960938 -14.28125 34.734375 -14.28125 C 38.378906 -14.28125 41.375 -15.46875 43.71875 -17.84375 C 46.0625 -20.21875 47.234375 -23.226562 47.234375 -26.875 C 47.234375 -30.582031 46.023438 -33.625 43.609375 -36 C 41.191406 -38.375 38.234375 -39.5625 34.734375 -39.5625 C 31.171875 -39.5625 28.179688 -38.375 25.765625 -36 Z M 25.765625 -36 "/></g></g></g><g fill="#000000" fill-opacity="1"><g transform="translate(444.138184, 412.470831)"><g><path d="M 6.296875 0 L 6.296875 -90.265625 L 24.875 -90.265625 L 24.875 0 Z M 6.296875 0 "/></g></g></g><g fill="#000000" fill-opacity="1"><g transform="translate(470.063431, 412.470831)"><g><path d="M 67.796875 -53.84375 L 42.1875 -28.125 L 70.3125 0 L 46.390625 0 L 24.875 -21.515625 L 24.875 0 L 6.296875 0 L 6.296875 -90.265625 L 24.875 -90.265625 L 24.875 -35.046875 L 43.65625 -53.84375 Z M 67.796875 -53.84375 "/></g></g></g><g fill="#000000" fill-opacity="1"><g transform="translate(532.619914, 412.470831)"><g><path d="M 29.703125 -55.421875 C 32.773438 -55.421875 35.816406 -55.066406 38.828125 -54.359375 C 41.835938 -53.660156 44.078125 -52.960938 45.546875 -52.265625 L 47.75 -51.21875 L 41.671875 -39.046875 C 37.472656 -41.285156 33.484375 -42.40625 29.703125 -42.40625 C 27.597656 -42.40625 26.109375 -42.175781 25.234375 -41.71875 C 24.359375 -41.257812 23.921875 -40.398438 23.921875 -39.140625 C 23.921875 -38.867188 23.957031 -38.59375 24.03125 -38.3125 C 24.101562 -38.03125 24.242188 -37.765625 24.453125 -37.515625 C 24.660156 -37.273438 24.851562 -37.066406 25.03125 -36.890625 C 25.207031 -36.710938 25.503906 -36.519531 25.921875 -36.3125 C 26.335938 -36.101562 26.664062 -35.945312 26.90625 -35.84375 C 27.15625 -35.738281 27.5625 -35.578125 28.125 -35.359375 C 28.6875 -35.148438 29.109375 -34.992188 29.390625 -34.890625 C 29.671875 -34.785156 30.140625 -34.628906 30.796875 -34.421875 C 31.460938 -34.210938 31.972656 -34.070312 32.328125 -34 C 34.492188 -33.375 36.378906 -32.675781 37.984375 -31.90625 C 39.597656 -31.132812 41.296875 -30.082031 43.078125 -28.75 C 44.867188 -27.425781 46.253906 -25.75 47.234375 -23.71875 C 48.210938 -21.6875 48.703125 -19.378906 48.703125 -16.796875 C 48.703125 -4.546875 40.195312 1.578125 23.1875 1.578125 C 19.34375 1.578125 15.6875 0.984375 12.21875 -0.203125 C 8.757812 -1.398438 6.257812 -2.59375 4.71875 -3.78125 L 2.40625 -5.671875 L 9.96875 -18.359375 C 10.53125 -17.867188 11.265625 -17.289062 12.171875 -16.625 C 13.078125 -15.96875 14.71875 -15.0625 17.09375 -13.90625 C 19.476562 -12.75 21.546875 -12.171875 23.296875 -12.171875 C 27.148438 -12.171875 29.078125 -13.46875 29.078125 -16.0625 C 29.078125 -17.25 28.585938 -18.175781 27.609375 -18.84375 C 26.628906 -19.507812 24.960938 -20.257812 22.609375 -21.09375 C 20.265625 -21.9375 18.429688 -22.707031 17.109375 -23.40625 C 13.742188 -25.15625 11.082031 -27.128906 9.125 -29.328125 C 7.164062 -31.535156 6.1875 -34.457031 6.1875 -38.09375 C 6.1875 -43.550781 8.300781 -47.800781 12.53125 -50.84375 C 16.769531 -53.894531 22.492188 -55.421875 29.703125 -55.421875 Z M 29.703125 -55.421875 "/></g></g></g><g fill="#000000" fill-opacity="1"><g transform="translate(579.012488, 412.470831)"><g><path d="M 18.265625 -22.453125 C 21.617188 -22.453125 24.46875 -21.28125 26.8125 -18.9375 C 29.15625 -16.59375 30.328125 -13.742188 30.328125 -10.390625 C 30.328125 -7.097656 29.15625 -4.28125 26.8125 -1.9375 C 24.46875 0.40625 21.617188 1.578125 18.265625 1.578125 C 14.972656 1.578125 12.15625 0.40625 9.8125 -1.9375 C 7.46875 -4.28125 6.296875 -7.097656 6.296875 -10.390625 C 6.296875 -13.742188 7.46875 -16.59375 9.8125 -18.9375 C 12.15625 -21.28125 14.972656 -22.453125 18.265625 -22.453125 Z M 18.265625 -22.453125 "/></g></g></g></svg>