<svg xmlns="http://www.w3.org/2000/svg" xmlns:xlink="http://www.w3.org/1999/xlink" width="885" zoomAndPan="magnify" viewBox="0 0 663.75 495.749987" height="661" preserveAspectRatio="xMidYMid meet" version="1.0"><defs><g/><clipPath id="aedd57d283"><path d="M 174.441406 257 L 307 257 L 307 325 L 174.441406 325 Z M 174.441406 257 " clip-rule="nonzero"/></clipPath><clipPath id="433ae0e09a"><path d="M 318 244.125 L 453 244.125 L 453 331.082031 L 318 331.082031 Z M 318 244.125 " clip-rule="nonzero"/></clipPath><clipPath id="dabe37e97a"><path d="M 259 244.125 L 327 244.125 L 327 254 L 259 254 Z M 259 244.125 " clip-rule="nonzero"/></clipPath></defs><g fill="#000000" fill-opacity="1"><g transform="translate(255.260319, 274.606866)"><g><path d="M 158.046875 -182.875 L 158.046875 -170.6875 L 61.40625 0 L 12.1875 0 L 96.421875 -146.296875 L 17.734375 -146.296875 L 17.734375 -182.875 Z M 158.046875 -182.875 "/></g></g></g><g clip-path="url(#aedd57d283)"><path fill="#000000" d="M 304.902344 324.910156 C 268.628906 324.558594 239.144531 321.859375 217.289062 316.910156 C 198.480469 312.660156 185.707031 306.863281 179.324219 299.6875 C 175.980469 295.941406 174.507812 291.914062 174.933594 287.742188 C 175.980469 277.667969 186.757812 270.445312 195.613281 266.171875 C 205.214844 261.523438 216.617188 258.398438 222.929688 257.699219 C 223.75 257.597656 224.5 258.199219 224.574219 259.023438 C 224.675781 259.847656 224.074219 260.597656 223.253906 260.671875 C 218.339844 261.222656 207.289062 263.847656 196.910156 268.871094 C 182.117188 276.019531 178.425781 283.265625 177.925781 288.066406 C 177.578125 291.367188 178.796875 294.589844 181.566406 297.6875 C 189.277344 306.335938 215.542969 321.007812 304.925781 321.882812 C 305.75 321.882812 306.421875 322.558594 306.398438 323.410156 C 306.398438 324.234375 305.726562 324.910156 304.902344 324.910156 Z M 304.902344 324.910156 " fill-opacity="1" fill-rule="nonzero"/></g><g clip-path="url(#433ae0e09a)"><path fill="#000000" d="M 319.917969 331.082031 C 319.097656 331.082031 318.421875 330.433594 318.421875 329.605469 C 318.421875 328.78125 319.070312 328.109375 319.894531 328.082031 C 347.785156 327.78125 376.820312 324.234375 399.597656 318.359375 C 426.414062 311.4375 443.230469 301.8125 448.167969 290.492188 C 450.113281 286.042969 449.515625 281.066406 446.421875 276.070312 C 443.402344 271.195312 436.566406 264.097656 421.125 258.046875 C 406.410156 252.273438 387.449219 248.824219 364.722656 247.773438 C 363.898438 247.726562 363.25 247.023438 363.300781 246.199219 C 363.351562 245.375 364.050781 244.726562 364.871094 244.777344 C 387.921875 245.851562 407.230469 249.375 422.222656 255.273438 C 435.046875 260.296875 444.300781 266.945312 448.964844 274.519531 C 452.558594 280.292969 453.230469 286.417969 450.914062 291.714844 C 448.09375 298.164062 441.90625 304.0625 432.550781 309.238281 C 424.21875 313.859375 413.367188 317.910156 400.347656 321.257812 C 377.347656 327.183594 348.035156 330.78125 319.917969 331.082031 Z M 319.917969 331.082031 " fill-opacity="1" fill-rule="nonzero"/></g><path fill="#000000" d="M 327.503906 310.5625 C 312.683594 310.5625 295.847656 309.785156 277.113281 308.261719 C 276.289062 308.1875 275.664062 307.460938 275.738281 306.636719 C 275.816406 305.8125 276.539062 305.210938 277.359375 305.261719 C 320.070312 308.761719 352.675781 308.261719 374.226562 303.761719 C 390.191406 300.4375 399.796875 294.789062 401.269531 287.867188 C 401.742188 285.640625 401.59375 282.167969 398.277344 278.09375 C 395.90625 275.167969 392.339844 272.695312 388.746094 271.417969 C 387.972656 271.144531 387.550781 270.296875 387.824219 269.519531 C 388.097656 268.746094 388.945312 268.320312 389.71875 268.59375 C 398.078125 271.519531 405.984375 279.96875 404.164062 288.492188 C 401.941406 298.9375 386.976562 304.164062 374.800781 306.710938 C 362.503906 309.261719 346.6875 310.5625 327.503906 310.5625 Z M 327.503906 310.5625 " fill-opacity="1" fill-rule="nonzero"/><path fill="#000000" d="M 243.308594 299.265625 C 243.285156 299.265625 243.257812 299.265625 243.234375 299.265625 C 243.136719 299.265625 234.054688 298.789062 225.074219 297.339844 C 211.925781 295.238281 205.789062 292.265625 205.789062 288.015625 C 205.789062 284.265625 208.757812 280.992188 214.621094 278.269531 C 218.6875 276.394531 222.703125 275.46875 222.878906 275.417969 C 223.675781 275.242188 224.476562 275.742188 224.675781 276.542969 C 224.847656 277.34375 224.351562 278.144531 223.550781 278.34375 C 223.476562 278.367188 219.636719 279.242188 215.84375 280.992188 C 212.625 282.492188 208.785156 284.917969 208.808594 287.992188 C 208.808594 288.617188 209.632812 291.789062 225.546875 294.339844 C 234.378906 295.765625 243.335938 296.214844 243.410156 296.214844 C 244.234375 296.265625 244.882812 296.964844 244.832031 297.789062 C 244.757812 298.640625 244.082031 299.265625 243.308594 299.265625 Z M 243.308594 299.265625 " fill-opacity="1" fill-rule="nonzero"/><g clip-path="url(#dabe37e97a)"><path fill="#000000" d="M 261.097656 253.398438 C 260.398438 253.398438 259.773438 252.925781 259.625 252.199219 C 259.449219 251.398438 259.972656 250.597656 260.796875 250.425781 C 261.097656 250.347656 291.480469 244.125 325.160156 244.75 C 325.980469 244.777344 326.628906 245.449219 326.628906 246.273438 C 326.605469 247.101562 325.957031 247.75 325.132812 247.75 L 325.109375 247.75 C 291.78125 247.148438 261.71875 253.300781 261.421875 253.375 C 261.296875 253.398438 261.195312 253.398438 261.097656 253.398438 Z M 261.097656 253.398438 " fill-opacity="1" fill-rule="nonzero"/></g><g fill="#000000" fill-opacity="1"><g transform="translate(151.375096, 422.638545)"><g><path d="M 60.765625 -24.34375 L 21.71875 -24.34375 C 21.71875 -20.570312 22.941406 -17.773438 25.390625 -15.953125 C 27.847656 -14.128906 30.507812 -13.21875 33.375 -13.21875 C 36.382812 -13.21875 38.765625 -13.617188 40.515625 -14.421875 C 42.265625 -15.234375 44.257812 -16.828125 46.5 -19.203125 L 59.921875 -12.484375 C 54.328125 -3.109375 45.023438 1.578125 32.015625 1.578125 C 23.898438 1.578125 16.9375 -1.203125 11.125 -6.765625 C 5.3125 -12.328125 2.40625 -19.023438 2.40625 -26.859375 C 2.40625 -34.703125 5.3125 -41.421875 11.125 -47.015625 C 16.9375 -52.617188 23.898438 -55.421875 32.015625 -55.421875 C 40.546875 -55.421875 47.488281 -52.953125 52.84375 -48.015625 C 58.195312 -43.078125 60.875 -36.03125 60.875 -26.875 C 60.875 -25.613281 60.835938 -24.769531 60.765625 -24.34375 Z M 22.25 -34.640625 L 42.71875 -34.640625 C 42.300781 -37.429688 41.195312 -39.578125 39.40625 -41.078125 C 37.625 -42.585938 35.332031 -43.34375 32.53125 -43.34375 C 29.457031 -43.34375 27.007812 -42.535156 25.1875 -40.921875 C 23.363281 -39.316406 22.382812 -37.222656 22.25 -34.640625 Z M 22.25 -34.640625 "/></g></g></g><g fill="#000000" fill-opacity="1"><g transform="translate(209.410873, 422.638545)"><g><path d="M 19.9375 -53.84375 L 33.0625 -24.5625 L 46.171875 -53.84375 L 68.21875 -53.84375 L 39.359375 0 L 26.765625 0 L -2.09375 -53.84375 Z M 19.9375 -53.84375 "/></g></g></g><g fill="#000000" fill-opacity="1"><g transform="translate(270.280232, 422.638545)"><g><path d="M 60.765625 -24.34375 L 21.71875 -24.34375 C 21.71875 -20.570312 22.941406 -17.773438 25.390625 -15.953125 C 27.847656 -14.128906 30.507812 -13.21875 33.375 -13.21875 C 36.382812 -13.21875 38.765625 -13.617188 40.515625 -14.421875 C 42.265625 -15.234375 44.257812 -16.828125 46.5 -19.203125 L 59.921875 -12.484375 C 54.328125 -3.109375 45.023438 1.578125 32.015625 1.578125 C 23.898438 1.578125 16.9375 -1.203125 11.125 -6.765625 C 5.3125 -12.328125 2.40625 -19.023438 2.40625 -26.859375 C 2.40625 -34.703125 5.3125 -41.421875 11.125 -47.015625 C 16.9375 -52.617188 23.898438 -55.421875 32.015625 -55.421875 C 40.546875 -55.421875 47.488281 -52.953125 52.84375 -48.015625 C 58.195312 -43.078125 60.875 -36.03125 60.875 -26.875 C 60.875 -25.613281 60.835938 -24.769531 60.765625 -24.34375 Z M 22.25 -34.640625 L 42.71875 -34.640625 C 42.300781 -37.429688 41.195312 -39.578125 39.40625 -41.078125 C 37.625 -42.585938 35.332031 -43.34375 32.53125 -43.34375 C 29.457031 -43.34375 27.007812 -42.535156 25.1875 -40.921875 C 23.363281 -39.316406 22.382812 -37.222656 22.25 -34.640625 Z M 22.25 -34.640625 "/></g></g></g><g fill="#000000" fill-opacity="1"><g transform="translate(328.316009, 422.638545)"><g><path d="M 6.296875 0 L 6.296875 -53.84375 L 24.875 -53.84375 L 24.875 -48.171875 L 25.078125 -48.171875 C 29.910156 -53.003906 35.054688 -55.421875 40.515625 -55.421875 C 43.171875 -55.421875 45.8125 -55.066406 48.4375 -54.359375 C 51.0625 -53.660156 53.578125 -52.578125 55.984375 -51.109375 C 58.398438 -49.640625 60.359375 -47.554688 61.859375 -44.859375 C 63.367188 -42.171875 64.125 -39.039062 64.125 -35.46875 L 64.125 0 L 45.546875 0 L 45.546875 -30.4375 C 45.546875 -33.238281 44.65625 -35.6875 42.875 -37.78125 C 41.09375 -39.882812 38.765625 -40.9375 35.890625 -40.9375 C 33.097656 -40.9375 30.5625 -39.847656 28.28125 -37.671875 C 26.007812 -35.503906 24.875 -33.09375 24.875 -30.4375 L 24.875 0 Z M 6.296875 0 "/></g></g></g><g fill="#000000" fill-opacity="1"><g transform="translate(392.438725, 422.638545)"><g><path d="M 9.453125 -53.84375 L 9.453125 -73.890625 L 28.015625 -73.890625 L 28.015625 -53.84375 L 39.359375 -53.84375 L 39.359375 -39.671875 L 28.015625 -39.671875 L 28.015625 -22.5625 C 28.015625 -17.59375 29.414062 -15.109375 32.21875 -15.109375 C 32.914062 -15.109375 33.648438 -15.25 34.421875 -15.53125 C 35.191406 -15.8125 35.785156 -16.09375 36.203125 -16.375 L 36.84375 -16.796875 L 41.453125 -1.78125 C 37.460938 0.457031 32.914062 1.578125 27.8125 1.578125 C 24.3125 1.578125 21.300781 0.96875 18.78125 -0.25 C 16.269531 -1.476562 14.363281 -3.125 13.0625 -5.1875 C 11.769531 -7.257812 10.84375 -9.429688 10.28125 -11.703125 C 9.726562 -13.972656 9.453125 -16.40625 9.453125 -19 L 9.453125 -39.671875 L 1.671875 -39.671875 L 1.671875 -53.84375 Z M 9.453125 -53.84375 "/></g></g></g><g fill="#000000" fill-opacity="1"><g transform="translate(428.645503, 422.638545)"><g><path d="M 29.703125 -55.421875 C 32.773438 -55.421875 35.816406 -55.066406 38.828125 -54.359375 C 41.835938 -53.660156 44.078125 -52.960938 45.546875 -52.265625 L 47.75 -51.21875 L 41.671875 -39.046875 C 37.472656 -41.285156 33.484375 -42.40625 29.703125 -42.40625 C 27.597656 -42.40625 26.109375 -42.175781 25.234375 -41.71875 C 24.359375 -41.257812 23.921875 -40.398438 23.921875 -39.140625 C 23.921875 -38.867188 23.957031 -38.59375 24.03125 -38.3125 C 24.101562 -38.03125 24.242188 -37.765625 24.453125 -37.515625 C 24.660156 -37.273438 24.851562 -37.066406 25.03125 -36.890625 C 25.207031 -36.710938 25.503906 -36.519531 25.921875 -36.3125 C 26.335938 -36.101562 26.664062 -35.945312 26.90625 -35.84375 C 27.15625 -35.738281 27.5625 -35.578125 28.125 -35.359375 C 28.6875 -35.148438 29.109375 -34.992188 29.390625 -34.890625 C 29.671875 -34.785156 30.140625 -34.628906 30.796875 -34.421875 C 31.460938 -34.210938 31.972656 -34.070312 32.328125 -34 C 34.492188 -33.375 36.378906 -32.675781 37.984375 -31.90625 C 39.597656 -31.132812 41.296875 -30.082031 43.078125 -28.75 C 44.867188 -27.425781 46.253906 -25.75 47.234375 -23.71875 C 48.210938 -21.6875 48.703125 -19.378906 48.703125 -16.796875 C 48.703125 -4.546875 40.195312 1.578125 23.1875 1.578125 C 19.34375 1.578125 15.6875 0.984375 12.21875 -0.203125 C 8.757812 -1.398438 6.257812 -2.59375 4.71875 -3.78125 L 2.40625 -5.671875 L 9.96875 -18.359375 C 10.53125 -17.867188 11.265625 -17.289062 12.171875 -16.625 C 13.078125 -15.96875 14.71875 -15.0625 17.09375 -13.90625 C 19.476562 -12.75 21.546875 -12.171875 23.296875 -12.171875 C 27.148438 -12.171875 29.078125 -13.46875 29.078125 -16.0625 C 29.078125 -17.25 28.585938 -18.175781 27.609375 -18.84375 C 26.628906 -19.507812 24.960938 -20.257812 22.609375 -21.09375 C 20.265625 -21.9375 18.429688 -22.707031 17.109375 -23.40625 C 13.742188 -25.15625 11.082031 -27.128906 9.125 -29.328125 C 7.164062 -31.535156 6.1875 -34.457031 6.1875 -38.09375 C 6.1875 -43.550781 8.300781 -47.800781 12.53125 -50.84375 C 16.769531 -53.894531 22.492188 -55.421875 29.703125 -55.421875 Z M 29.703125 -55.421875 "/></g></g></g><g fill="#000000" fill-opacity="1"><g transform="translate(475.03216, 422.638545)"><g><path d="M 18.265625 -22.453125 C 21.617188 -22.453125 24.46875 -21.28125 26.8125 -18.9375 C 29.15625 -16.59375 30.328125 -13.742188 30.328125 -10.390625 C 30.328125 -7.097656 29.15625 -4.28125 26.8125 -1.9375 C 24.46875 0.40625 21.617188 1.578125 18.265625 1.578125 C 14.972656 1.578125 12.15625 0.40625 9.8125 -1.9375 C 7.46875 -4.28125 6.296875 -7.097656 6.296875 -10.390625 C 6.296875 -13.742188 7.46875 -16.59375 9.8125 -18.9375 C 12.15625 -21.28125 14.972656 -22.453125 18.265625 -22.453125 Z M 18.265625 -22.453125 "/></g></g></g></svg>