<svg width="359" height="244" viewBox="0 0 359 244" fill="none" xmlns="http://www.w3.org/2000/svg">
<rect width="360" height="244" fill="#181A22"/>
<path d="M290.687 193.258C290.412 192.519 289.964 191.858 289.38 191.327C288.796 190.797 288.092 190.413 287.328 190.208L286.165 188.251C286.058 188.072 285.891 187.936 285.693 187.867C285.495 187.798 285.279 187.8 285.082 187.873L282.039 189.005C281.842 189.078 281.677 189.217 281.572 189.399C281.467 189.581 281.43 189.793 281.466 189.998L281.864 192.24C281.419 192.894 281.137 193.644 281.042 194.427C280.946 195.211 281.039 196.004 281.314 196.743C281.588 197.481 282.036 198.143 282.62 198.673C283.204 199.203 283.908 199.587 284.672 199.792L285.835 201.749C285.942 201.928 286.109 202.064 286.307 202.133C286.505 202.202 286.721 202.2 286.918 202.127L289.961 200.996C290.158 200.922 290.323 200.783 290.428 200.601C290.533 200.419 290.57 200.207 290.534 200.002L290.136 197.76C290.581 197.106 290.863 196.356 290.958 195.573C291.054 194.789 290.961 193.996 290.687 193.258ZM282.223 189.862C282.218 189.832 282.224 189.802 282.239 189.776C282.254 189.75 282.279 189.73 282.307 189.72L285.35 188.588C285.378 188.577 285.409 188.577 285.438 188.586C285.467 188.596 285.491 188.616 285.506 188.641L286.339 190.042C285.637 189.997 284.934 190.101 284.274 190.346C283.614 190.592 283.014 190.973 282.512 191.465L282.223 189.862ZM289.777 200.138C289.782 200.168 289.776 200.198 289.761 200.224C289.746 200.25 289.722 200.27 289.693 200.28L286.652 201.411C286.624 201.422 286.593 201.423 286.564 201.413C286.535 201.403 286.511 201.384 286.496 201.358L285.663 199.957C286.365 200.002 287.068 199.898 287.728 199.653C288.388 199.408 288.988 199.026 289.49 198.534L289.777 200.138ZM287.464 198.937C286.68 199.228 285.827 199.282 285.014 199.092C284.201 198.902 283.464 198.476 282.897 197.869C282.329 197.261 281.956 196.499 281.825 195.678C281.694 194.858 281.811 194.016 282.161 193.259C282.511 192.502 283.078 191.865 283.791 191.427C284.504 190.989 285.33 190.77 286.165 190.799C287.001 190.827 287.808 191.102 288.484 191.587C289.161 192.072 289.676 192.747 289.966 193.526C290.352 194.57 290.306 195.726 289.837 196.74C289.368 197.755 288.515 198.545 287.464 198.937ZM288.764 193.972C288.799 194.067 288.795 194.172 288.752 194.265C288.71 194.357 288.632 194.429 288.537 194.464L286.133 195.358C286.038 195.393 285.932 195.39 285.839 195.348C285.747 195.306 285.675 195.229 285.64 195.134L284.753 192.748C284.717 192.653 284.721 192.548 284.764 192.456C284.807 192.364 284.884 192.292 284.98 192.256C285.076 192.221 285.181 192.224 285.274 192.266C285.366 192.308 285.438 192.385 285.474 192.48L286.228 194.508L288.27 193.749C288.366 193.713 288.472 193.717 288.564 193.759C288.657 193.801 288.729 193.877 288.764 193.972Z" fill="#1C2E43"/>
<path d="M33.8028 84.1479C33.7168 84.1921 33.617 84.2003 33.5251 84.1707C33.4332 84.1412 33.3565 84.0763 33.3119 83.9901C32.8362 83.0445 32.1158 82.2456 31.2267 81.6776C31.1458 81.6249 31.0888 81.5423 31.068 81.4476C31.0473 81.353 31.0644 81.2539 31.1158 81.1718C31.1672 81.0898 31.2486 81.0315 31.3425 81.0096C31.4363 80.9876 31.5349 81.0038 31.617 81.0546C32.6126 81.6957 33.4209 82.592 33.9588 83.6513C33.981 83.6943 33.9945 83.7412 33.9986 83.7893C34.0028 83.8375 33.9974 83.886 33.983 83.9321C33.9685 83.9783 33.9451 84.021 33.9142 84.058C33.8832 84.0951 33.8454 84.1256 33.8028 84.1479ZM22.703 83.9901C23.1788 83.0445 23.8992 82.2456 24.7882 81.6776C24.8691 81.6249 24.9262 81.5423 24.9469 81.4476C24.9677 81.353 24.9505 81.2539 24.8992 81.1718C24.8478 81.0898 24.7664 81.0315 24.6725 81.0096C24.5787 80.9876 24.4801 81.0038 24.398 81.0546C23.4024 81.6957 22.5941 82.592 22.0561 83.6513C22.0292 83.6944 22.0115 83.7427 22.004 83.793C21.9965 83.8433 21.9995 83.8947 22.0128 83.9438C22.026 83.9929 22.0492 84.0387 22.0809 84.0783C22.1126 84.118 22.1521 84.1506 22.197 84.1741C22.2418 84.1975 22.291 84.2114 22.3415 84.2148C22.3919 84.2182 22.4425 84.211 22.4901 84.1937C22.5376 84.1765 22.5811 84.1494 22.6177 84.1144C22.6544 84.0794 22.6834 84.037 22.703 83.9901ZM33.6168 90.7523C33.6923 90.8825 33.7325 91.0303 33.7333 91.1811C33.7341 91.3318 33.6955 91.4801 33.6213 91.611C33.5472 91.742 33.4402 91.851 33.3109 91.9272C33.1817 92.0033 33.0349 92.0439 32.8851 92.0449H30.2939C30.205 92.5908 29.9263 93.0871 29.5075 93.4452C29.0887 93.8034 28.557 94 28.0075 94C27.458 94 26.9263 93.8034 26.5075 93.4452C26.0887 93.0871 25.8099 92.5908 25.7211 92.0449H23.1298C22.9798 92.0446 22.8325 92.0044 22.7028 91.9285C22.573 91.8527 22.4655 91.7437 22.3909 91.6126C22.3163 91.4816 22.2774 91.333 22.2781 91.182C22.2787 91.031 22.3189 90.8828 22.3945 90.7523C22.9549 89.7796 23.2518 88.4011 23.2518 86.7667C23.2518 85.4971 23.7528 84.2794 24.6447 83.3816C25.5366 82.4839 26.7462 81.9795 28.0075 81.9795C29.2688 81.9795 30.4784 82.4839 31.3703 83.3816C32.2622 84.2794 32.7632 85.4971 32.7632 86.7667C32.7632 88.4238 33.0522 89.7654 33.6217 90.7523H33.6168ZM29.5494 92.0449H26.4655C26.5483 92.3939 26.7454 92.7046 27.0252 92.927C27.305 93.1493 27.651 93.2702 28.0075 93.2702C28.3639 93.2702 28.71 93.1493 28.9898 92.927C29.2695 92.7046 29.4667 92.3939 29.5494 92.0449ZM32.9894 91.1243C32.3541 90.0195 32.0316 88.5558 32.0316 86.7667C32.0316 85.6924 31.6076 84.6621 30.8529 83.9024C30.0983 83.1428 29.0747 82.716 28.0075 82.716C26.9402 82.716 25.9167 83.1428 25.162 83.9024C24.4074 84.6621 23.9834 85.6924 23.9834 86.7667C23.9834 88.5564 23.6609 90.0195 23.0256 91.1243C23.0149 91.1429 23.0092 91.1641 23.0092 91.1856C23.0092 91.2072 23.0149 91.2283 23.0256 91.247C23.0356 91.2658 23.0506 91.2815 23.0689 91.2923C23.0871 91.3031 23.108 91.3087 23.1292 91.3084H32.8851C32.9063 91.3087 32.9272 91.3031 32.9455 91.2923C32.9638 91.2815 32.9788 91.2658 32.9888 91.247C32.9996 91.2284 33.0053 91.2073 33.0054 91.1857C33.0055 91.1642 33 91.143 32.9894 91.1243Z" fill="#1C2E43"/>
<path d="M164.843 196.846C164.789 196.926 164.706 196.982 164.611 197.001C164.516 197.02 164.418 197.001 164.337 196.947C163.461 196.352 162.443 196.005 161.39 195.942C161.294 195.935 161.204 195.891 161.139 195.818C161.075 195.746 161.042 195.651 161.047 195.554C161.052 195.457 161.095 195.367 161.166 195.302C161.237 195.237 161.331 195.203 161.428 195.208C162.609 195.283 163.752 195.673 164.737 196.336C164.777 196.363 164.812 196.397 164.839 196.437C164.866 196.477 164.885 196.522 164.895 196.57C164.905 196.617 164.905 196.666 164.896 196.713C164.887 196.761 164.869 196.806 164.843 196.846ZM155.069 202.11C155.025 201.053 155.265 200.004 155.765 199.075C155.811 198.99 155.82 198.89 155.792 198.797C155.764 198.704 155.701 198.626 155.616 198.58C155.531 198.533 155.432 198.522 155.339 198.548C155.247 198.575 155.168 198.637 155.121 198.721C154.564 199.766 154.294 200.942 154.339 202.129C154.337 202.18 154.345 202.231 154.363 202.278C154.381 202.326 154.408 202.369 154.444 202.406C154.479 202.442 154.522 202.471 154.569 202.49C154.616 202.51 154.666 202.519 154.717 202.517C154.768 202.516 154.817 202.504 154.863 202.483C154.909 202.461 154.949 202.43 154.983 202.392C155.016 202.354 155.04 202.309 155.055 202.261C155.07 202.212 155.075 202.161 155.069 202.11ZM167.895 202.706C168.024 202.783 168.131 202.892 168.205 203.024C168.279 203.155 168.317 203.303 168.316 203.454C168.315 203.604 168.275 203.752 168.199 203.881C168.123 204.01 168.015 204.117 167.885 204.191L165.621 205.452C165.809 205.972 165.807 206.542 165.616 207.058C165.424 207.575 165.055 208.006 164.575 208.273C164.095 208.54 163.535 208.627 162.995 208.518C162.455 208.409 161.97 208.112 161.626 207.678L159.363 208.939C159.231 209.012 159.083 209.048 158.933 209.045C158.783 209.042 158.636 208.999 158.507 208.921C158.378 208.843 158.272 208.732 158.199 208.6C158.126 208.468 158.089 208.319 158.091 208.168C158.107 207.045 157.696 205.697 156.9 204.269C156.282 203.16 156.127 201.852 156.469 200.634C156.812 199.416 157.623 198.386 158.725 197.772C159.826 197.158 161.129 197.01 162.345 197.36C163.561 197.711 164.591 198.53 165.209 199.64C166.016 201.087 166.921 202.119 167.899 202.703L167.895 202.706ZM164.971 205.815L162.277 207.316C162.519 207.58 162.842 207.756 163.195 207.814C163.547 207.872 163.909 207.809 164.22 207.635C164.531 207.462 164.775 207.188 164.911 206.858C165.047 206.527 165.068 206.16 164.971 205.815ZM167.528 203.336C166.435 202.68 165.441 201.559 164.57 199.996C164.047 199.057 163.175 198.364 162.146 198.067C161.117 197.771 160.015 197.896 159.083 198.416C158.151 198.935 157.464 199.806 157.175 200.837C156.885 201.868 157.016 202.974 157.539 203.913C158.41 205.476 158.841 206.911 158.823 208.186C158.823 208.207 158.829 208.228 158.839 208.247C158.85 208.266 158.865 208.282 158.883 208.293C158.901 208.304 158.922 208.311 158.943 208.311C158.964 208.312 158.985 208.307 159.004 208.296L167.526 203.548C167.545 203.538 167.56 203.523 167.571 203.504C167.582 203.486 167.587 203.465 167.587 203.444C167.587 203.422 167.582 203.401 167.571 203.382C167.561 203.363 167.546 203.347 167.528 203.336Z" fill="#1C2E43"/>
<path d="M71.5909 25.2518C71.4948 25.2615 71.3989 25.2326 71.3242 25.1714C71.2494 25.1102 71.2019 25.0218 71.192 24.9253C71.0956 23.8711 70.7179 22.8639 70.0986 22.0097C70.0426 21.9311 70.0198 21.8334 70.0351 21.7376C70.0505 21.6419 70.1028 21.556 70.1806 21.4985C70.2585 21.441 70.3556 21.4166 70.4509 21.4305C70.5463 21.4444 70.6321 21.4956 70.6899 21.573C71.3815 22.5342 71.8054 23.6642 71.918 24.847C71.9229 24.895 71.9183 24.9436 71.9045 24.9899C71.8907 25.0363 71.868 25.0795 71.8376 25.1171C71.8072 25.1547 71.7698 25.1859 71.7275 25.2091C71.6852 25.2322 71.6387 25.2467 71.5909 25.2518ZM61.3202 21.0399C62.1092 20.3342 63.0721 19.8546 64.1075 19.6517C64.202 19.6323 64.2853 19.5763 64.3393 19.4958C64.3933 19.4153 64.4137 19.3168 64.3959 19.2217C64.3781 19.1266 64.3237 19.0425 64.2444 18.9877C64.1652 18.9329 64.0675 18.9118 63.9725 18.9291C62.8112 19.161 61.7309 19.6989 60.8423 20.4877C60.8015 20.5179 60.7673 20.5563 60.7419 20.6004C60.7165 20.6445 60.7005 20.6934 60.6948 20.7439C60.6892 20.7945 60.694 20.8456 60.709 20.8941C60.724 20.9426 60.7488 20.9874 60.7819 21.0257C60.8151 21.0639 60.8558 21.0949 60.9015 21.1165C60.9472 21.1381 60.9969 21.15 61.0474 21.1513C61.098 21.1526 61.1484 21.1434 61.1953 21.1242C61.2422 21.1051 61.2848 21.0763 61.3202 21.0399ZM68.999 31.3293C69.0216 31.4781 69.0049 31.6304 68.9504 31.7709C68.8959 31.9115 68.8057 32.0353 68.6888 32.13C68.5718 32.2247 68.4323 32.287 68.2842 32.3105C68.136 32.334 67.9845 32.318 67.8448 32.2641L65.4336 31.315C65.151 31.7905 64.7099 32.1502 64.189 32.3301C63.6681 32.51 63.1014 32.4982 62.59 32.297C62.0787 32.0957 61.656 31.718 61.3974 31.2314C61.1389 30.7447 61.0613 30.1808 61.1785 29.6403L58.7673 28.6913C58.6278 28.636 58.5055 28.5447 58.4125 28.4266C58.3196 28.3085 58.2594 28.1677 58.238 28.0184C58.2167 27.8691 58.2348 27.7167 58.2908 27.5764C58.3467 27.4361 58.4383 27.3129 58.5565 27.2192C59.4342 26.5193 60.2153 25.3453 60.8139 23.8245C61.2789 22.6431 62.1911 21.6935 63.3498 21.1848C64.5085 20.676 65.8188 20.6497 66.9925 21.1117C68.1661 21.5736 69.107 22.4859 69.6081 23.648C70.1092 24.81 70.1295 26.1265 69.6645 27.308C69.0576 28.8499 68.8351 30.2042 69.0036 31.3311L68.999 31.3293ZM64.7409 31.0424L61.8713 29.9129C61.8204 30.268 61.8901 30.6294 62.069 30.9387C62.2479 31.2481 62.5256 31.4873 62.8573 31.6179C63.189 31.7484 63.5553 31.7626 63.897 31.6582C64.2388 31.5538 64.5361 31.3369 64.7409 31.0424ZM68.279 31.4456C68.0924 30.185 68.3284 28.7048 68.9836 27.04C69.3771 26.0403 69.3599 24.9263 68.9359 23.9431C68.5119 22.9598 67.7158 22.1879 66.7227 21.797C65.7296 21.4061 64.6209 21.4284 63.6405 21.8588C62.66 22.2893 61.8882 23.0928 61.4947 24.0924C60.8393 25.7578 60.0033 27.0011 59.0075 27.7964C58.9907 27.8099 58.9777 27.8275 58.9698 27.8476C58.9619 27.8676 58.9594 27.8894 58.9625 27.9106C58.965 27.9318 58.9732 27.9519 58.9862 27.9686C58.9993 27.9854 59.0167 27.9982 59.0365 28.0057L68.1146 31.5788C68.1342 31.5868 68.1557 31.5893 68.1766 31.5859C68.1976 31.5825 68.2173 31.5734 68.2335 31.5596C68.2504 31.5463 68.2634 31.5287 68.2714 31.5087C68.2794 31.4887 68.282 31.4669 68.279 31.4456Z" fill="#1C2E43"/>
<path d="M196.143 107.115C195.759 106.427 195.216 105.841 194.558 105.405C193.9 104.97 193.147 104.697 192.36 104.61L190.914 102.853C190.781 102.692 190.595 102.583 190.389 102.544C190.183 102.506 189.969 102.541 189.786 102.644L186.95 104.224C186.766 104.326 186.624 104.489 186.548 104.684C186.472 104.88 186.467 105.095 186.535 105.293L187.268 107.448C186.927 108.162 186.763 108.946 186.787 109.735C186.811 110.524 187.024 111.294 187.407 111.982C187.79 112.67 188.334 113.256 188.991 113.692C189.649 114.127 190.403 114.4 191.19 114.487L192.636 116.244C192.769 116.405 192.955 116.514 193.161 116.553C193.367 116.591 193.58 116.556 193.764 116.453L196.6 114.873C196.783 114.771 196.926 114.608 197.002 114.413C197.077 114.217 197.082 114.002 197.015 113.804L196.282 111.649C196.622 110.935 196.787 110.15 196.762 109.362C196.738 108.573 196.526 107.803 196.143 107.115ZM187.262 105.043C187.253 105.015 187.253 104.984 187.265 104.955C187.276 104.927 187.297 104.904 187.323 104.89L190.159 103.31C190.185 103.295 190.216 103.289 190.246 103.294C190.276 103.3 190.303 103.315 190.322 103.339L191.357 104.597C190.657 104.659 189.977 104.868 189.362 105.211C188.747 105.553 188.212 106.021 187.79 106.584L187.262 105.043ZM196.288 114.054C196.297 114.082 196.296 114.113 196.285 114.142C196.274 114.17 196.253 114.193 196.226 114.207L193.392 115.786C193.366 115.802 193.335 115.807 193.305 115.802C193.276 115.796 193.249 115.781 193.229 115.758L192.194 114.499C192.894 114.437 193.574 114.228 194.189 113.885C194.804 113.543 195.34 113.075 195.761 112.512L196.288 114.054ZM193.819 113.217C193.088 113.625 192.254 113.808 191.421 113.743C190.589 113.679 189.796 113.37 189.143 112.855C188.489 112.34 188.005 111.643 187.751 110.852C187.497 110.061 187.485 109.211 187.716 108.41C187.947 107.609 188.411 106.893 189.049 106.352C189.687 105.811 190.471 105.469 191.301 105.371C192.131 105.272 192.97 105.421 193.712 105.798C194.454 106.175 195.066 106.764 195.471 107.489C196.011 108.463 196.141 109.612 195.832 110.686C195.522 111.76 194.798 112.67 193.819 113.217ZM194.351 108.113C194.4 108.202 194.412 108.306 194.384 108.404C194.356 108.502 194.29 108.584 194.201 108.634L191.961 109.882C191.872 109.932 191.767 109.944 191.669 109.917C191.571 109.889 191.488 109.824 191.439 109.736L190.2 107.512C190.151 107.424 190.139 107.319 190.167 107.221C190.195 107.124 190.261 107.041 190.35 106.991C190.439 106.942 190.544 106.929 190.642 106.957C190.74 106.984 190.823 107.049 190.872 107.138L191.925 109.028L193.829 107.967C193.918 107.917 194.023 107.905 194.121 107.932C194.219 107.96 194.301 108.025 194.351 108.113Z" fill="#1C2E43"/>
<path d="M258.869 85.1761C259.157 84.443 259.265 83.6513 259.185 82.8666C259.104 82.0819 258.836 81.3266 258.404 80.6635L258.844 78.4302C258.885 78.2253 258.851 78.0125 258.75 77.8289C258.649 77.6453 258.486 77.5026 258.29 77.4257L255.27 76.2368C255.074 76.1597 254.858 76.1533 254.659 76.2186C254.459 76.2839 254.29 76.4169 254.18 76.5943L252.98 78.5285C252.211 78.719 251.501 79.0892 250.907 79.6083C250.313 80.1275 249.852 80.7806 249.564 81.5136C249.275 82.2466 249.167 83.0384 249.248 83.8232C249.329 84.608 249.596 85.3632 250.029 86.0263L249.588 88.2596C249.548 88.4645 249.582 88.6772 249.683 88.8608C249.784 89.0444 249.947 89.1871 250.142 89.2641L253.163 90.4529C253.359 90.53 253.575 90.5365 253.774 90.4711C253.973 90.4058 254.143 90.2728 254.253 90.0955L255.453 88.1613C256.221 87.9705 256.932 87.6002 257.526 87.0811C258.12 86.562 258.58 85.9089 258.869 85.1761ZM254.834 76.9982C254.85 76.9727 254.875 76.9536 254.904 76.9444C254.933 76.9352 254.964 76.9365 254.992 76.9481L258.012 78.137C258.041 78.1476 258.065 78.1679 258.08 78.1943C258.094 78.2207 258.099 78.2514 258.094 78.281L257.778 79.8797C257.286 79.378 256.693 78.9853 256.038 78.7275C255.383 78.4698 254.681 78.3527 253.979 78.3842L254.834 76.9982ZM253.598 89.6915C253.582 89.7171 253.558 89.7362 253.529 89.7454C253.5 89.7545 253.469 89.7532 253.441 89.7417L250.422 88.5535C250.394 88.5428 250.37 88.5225 250.355 88.4961C250.34 88.4697 250.335 88.439 250.341 88.4094L250.656 86.8107C251.149 87.3124 251.742 87.7051 252.397 87.9629C253.052 88.2207 253.753 88.3377 254.456 88.3062L253.598 89.6915ZM252.678 87.253C251.9 86.9466 251.229 86.4178 250.75 85.7336C250.272 85.0493 250.008 84.2403 249.991 83.4089C249.974 82.5775 250.205 81.761 250.655 81.0627C251.106 80.3644 251.755 79.8156 252.52 79.4857C253.286 79.1559 254.134 79.0597 254.957 79.2095C255.78 79.3593 256.541 79.7482 257.144 80.3271C257.747 80.9061 258.165 81.649 258.344 82.4619C258.524 83.2749 258.457 84.1214 258.153 84.8943C257.744 85.93 256.938 86.7599 255.912 87.2021C254.885 87.6443 253.722 87.6626 252.678 87.253ZM256.96 84.4248C256.923 84.519 256.85 84.5946 256.756 84.6348C256.663 84.675 256.557 84.6766 256.462 84.6392L254.077 83.7002C253.982 83.6628 253.905 83.5895 253.864 83.4965C253.824 83.4034 253.821 83.2982 253.858 83.204L254.791 80.8354C254.828 80.7412 254.901 80.6657 254.994 80.6254C255.088 80.5852 255.194 80.5836 255.288 80.621C255.383 80.6583 255.46 80.7316 255.501 80.8247C255.541 80.9177 255.544 81.0229 255.507 81.1171L254.714 83.1304L256.742 83.9287C256.837 83.966 256.913 84.0393 256.954 84.1323C256.995 84.2254 256.997 84.3306 256.96 84.4248Z" fill="#1C2E43"/>
<path d="M101.005 148.028C99.8226 148.028 98.6668 148.379 97.6838 149.037C96.7007 149.695 95.9345 150.63 95.4821 151.724C95.0296 152.817 94.9112 154.021 95.1419 155.182C95.3726 156.343 95.9419 157.41 96.7779 158.247C97.6139 159.084 98.6791 159.654 99.8387 159.885C100.998 160.116 102.2 159.997 103.293 159.544C104.385 159.091 105.319 158.324 105.975 157.34C106.632 156.355 106.983 155.198 106.983 154.014C106.981 152.427 106.351 150.906 105.23 149.784C104.109 148.661 102.59 148.03 101.005 148.028ZM101.005 159.236C99.9735 159.236 98.9653 158.93 98.1078 158.356C97.2502 157.782 96.5818 156.967 96.1871 156.012C95.7924 155.058 95.6892 154.008 95.8904 152.995C96.0916 151.983 96.5882 151.052 97.3175 150.322C98.0468 149.592 98.976 149.094 99.9876 148.893C100.999 148.691 102.048 148.795 103.001 149.19C103.953 149.585 104.768 150.254 105.341 151.113C105.914 151.972 106.22 152.981 106.22 154.014C106.218 155.399 105.668 156.726 104.69 157.705C103.713 158.683 102.387 159.234 101.005 159.236ZM96.6958 147.662L94.6607 149.699C94.6258 149.737 94.5837 149.767 94.5369 149.788C94.4901 149.809 94.4395 149.82 94.3883 149.821C94.3371 149.822 94.2862 149.812 94.2387 149.793C94.1912 149.774 94.148 149.745 94.1118 149.709C94.0755 149.673 94.047 149.63 94.0278 149.582C94.0086 149.534 93.9992 149.483 94.0001 149.432C94.001 149.381 94.0122 149.33 94.033 149.283C94.0539 149.236 94.084 149.194 94.1214 149.159L96.1565 147.122C96.1914 147.084 96.2335 147.054 96.2803 147.033C96.3271 147.012 96.3777 147.001 96.4289 147C96.4801 146.999 96.531 147.009 96.5785 147.028C96.626 147.047 96.6692 147.076 96.7054 147.112C96.7417 147.148 96.7702 147.191 96.7894 147.239C96.8086 147.287 96.818 147.338 96.8171 147.389C96.8162 147.44 96.805 147.491 96.7842 147.538C96.7633 147.584 96.7332 147.627 96.6958 147.662ZM107.888 149.699C107.817 149.771 107.72 149.811 107.619 149.811C107.518 149.811 107.421 149.771 107.349 149.699L105.314 147.662C105.247 147.589 105.21 147.493 105.212 147.394C105.213 147.295 105.254 147.201 105.323 147.131C105.393 147.061 105.488 147.021 105.587 147.019C105.685 147.017 105.781 147.054 105.853 147.122L107.888 149.159C107.96 149.231 108 149.328 108 149.429C108 149.531 107.96 149.628 107.888 149.699ZM104.566 153.632C104.667 153.632 104.764 153.672 104.836 153.744C104.908 153.816 104.948 153.913 104.948 154.014C104.948 154.116 104.908 154.213 104.836 154.284C104.764 154.356 104.667 154.396 104.566 154.396H101.005C100.904 154.396 100.807 154.356 100.735 154.284C100.664 154.213 100.623 154.116 100.623 154.014V150.448C100.623 150.347 100.664 150.25 100.735 150.178C100.807 150.106 100.904 150.066 101.005 150.066C101.106 150.066 101.203 150.106 101.275 150.178C101.346 150.25 101.386 150.347 101.386 150.448V153.632H104.566Z" fill="#1C2E43"/>
<path d="M40.6198 186.303C39.5869 186.878 38.7482 187.748 38.2095 188.801C37.6709 189.854 37.4566 191.043 37.5937 192.219C37.7308 193.395 38.2131 194.504 38.9798 195.406C39.7464 196.308 40.7629 196.962 41.9006 197.287C43.0384 197.611 44.2463 197.591 45.3717 197.228C46.4971 196.865 47.4894 196.177 48.2231 195.249C48.9568 194.322 49.399 193.197 49.4937 192.018C49.5884 190.838 49.3314 189.657 48.7552 188.622C47.9812 187.237 46.69 186.215 45.1648 185.78C43.6397 185.345 42.0052 185.533 40.6198 186.303ZM46.0746 196.093C45.1736 196.595 44.1438 196.819 43.1154 196.735C42.087 196.651 41.1062 196.264 40.297 195.622C39.4879 194.981 38.8866 194.114 38.5694 193.131C38.2522 192.149 38.2332 191.094 38.5149 190.101C38.7966 189.108 39.3662 188.222 40.1518 187.553C40.9374 186.885 41.9037 186.465 42.9284 186.346C43.9532 186.228 44.9904 186.416 45.9089 186.887C46.8274 187.359 47.5859 188.092 48.0886 188.994C48.7609 190.204 48.9264 191.631 48.5488 192.962C48.1713 194.293 47.2815 195.419 46.0746 196.093ZM36.6769 188.08L35.891 190.85C35.8787 190.9 35.8566 190.947 35.8259 190.988C35.7951 191.029 35.7565 191.063 35.7121 191.089C35.6678 191.115 35.6188 191.131 35.5679 191.138C35.5171 191.144 35.4654 191.14 35.4161 191.126C35.3668 191.112 35.3208 191.088 35.2809 191.056C35.241 191.024 35.208 190.984 35.1838 190.939C35.1596 190.893 35.1448 190.844 35.1402 190.793C35.1356 190.741 35.1413 190.69 35.1571 190.641L35.943 187.871C35.9552 187.821 35.9774 187.774 36.0081 187.733C36.0388 187.692 36.0775 187.658 36.1218 187.632C36.1661 187.606 36.2152 187.59 36.266 187.583C36.3169 187.577 36.3685 187.581 36.4178 187.595C36.4672 187.609 36.5131 187.633 36.5531 187.665C36.593 187.697 36.626 187.737 36.6502 187.782C36.6744 187.828 36.6892 187.877 36.6938 187.928C36.6984 187.98 36.6926 188.031 36.6769 188.08ZM47.4462 184.412C47.4185 184.51 47.3534 184.592 47.265 184.641C47.1767 184.69 47.0724 184.703 46.9751 184.675L44.2056 183.885C44.1115 183.855 44.0328 183.789 43.9861 183.702C43.9395 183.614 43.9285 183.512 43.9555 183.417C43.9825 183.322 44.0454 183.241 44.1309 183.191C44.2164 183.142 44.3178 183.127 44.4139 183.151L47.1834 183.941C47.2807 183.968 47.363 184.034 47.4123 184.122C47.4615 184.211 47.4737 184.315 47.4462 184.412ZM46.4582 189.465C46.5466 189.416 46.651 189.404 46.7484 189.431C46.8457 189.459 46.9282 189.524 46.9775 189.613C47.0268 189.701 47.039 189.806 47.0113 189.903C46.9837 190.001 46.9185 190.083 46.8301 190.132L43.7191 191.866C43.6307 191.915 43.5263 191.927 43.4289 191.899C43.3315 191.871 43.2491 191.806 43.1998 191.718L41.4642 188.603C41.4149 188.514 41.4027 188.41 41.4303 188.312C41.458 188.215 41.5232 188.132 41.6116 188.083C41.7 188.034 41.8043 188.022 41.9017 188.049C41.9991 188.077 42.0815 188.143 42.1308 188.231L43.6805 191.012L46.4582 189.465Z" fill="#1C2E43"/>
<path d="M330.903 98.5224C329.803 98.0894 328.599 97.9928 327.443 98.2448C326.287 98.4968 325.232 99.0861 324.41 99.9381C323.589 100.79 323.038 101.867 322.827 103.032C322.617 104.197 322.756 105.398 323.227 106.483C323.698 107.568 324.481 108.488 325.475 109.128C326.47 109.768 327.632 110.098 328.814 110.076C329.996 110.055 331.146 109.683 332.118 109.007C333.089 108.332 333.84 107.383 334.273 106.282C334.853 104.804 334.823 103.158 334.191 101.703C333.56 100.248 332.377 99.1046 330.903 98.5224ZM326.798 108.951C325.838 108.573 325.012 107.919 324.425 107.071C323.837 106.223 323.513 105.22 323.496 104.187C323.478 103.155 323.766 102.14 324.324 101.271C324.883 100.402 325.686 99.7186 326.632 99.3061C327.578 98.8937 328.624 98.7713 329.64 98.9543C330.655 99.1373 331.592 99.6175 332.334 100.334C333.076 101.051 333.589 101.972 333.808 102.981C334.026 103.99 333.941 105.041 333.563 106.002C333.054 107.29 332.057 108.323 330.788 108.876C329.52 109.429 328.085 109.456 326.798 108.951ZM327.027 96.6029L324.387 97.7538C324.341 97.7759 324.291 97.7885 324.24 97.7908C324.189 97.7931 324.137 97.785 324.089 97.7671C324.041 97.7492 323.998 97.7217 323.96 97.6865C323.923 97.6512 323.893 97.6088 323.873 97.5617C323.853 97.5147 323.842 97.464 323.841 97.4127C323.841 97.3614 323.851 97.3106 323.871 97.2632C323.89 97.2157 323.919 97.1728 323.956 97.1368C323.992 97.1008 324.036 97.0726 324.083 97.0538L326.723 95.9029C326.77 95.8808 326.82 95.8682 326.871 95.8659C326.922 95.8636 326.973 95.8717 327.021 95.8896C327.069 95.9075 327.113 95.935 327.15 95.9702C327.188 96.0055 327.217 96.048 327.238 96.095C327.258 96.142 327.269 96.1927 327.269 96.244C327.27 96.2953 327.26 96.3462 327.24 96.3936C327.221 96.441 327.192 96.4839 327.155 96.5199C327.118 96.5559 327.075 96.5841 327.027 96.6029ZM336.696 102.598C336.603 102.639 336.498 102.641 336.404 102.604C336.31 102.566 336.235 102.494 336.194 102.401L335.047 99.7593C335.011 99.6673 335.012 99.5647 335.05 99.4732C335.087 99.3818 335.159 99.3085 335.25 99.269C335.341 99.2295 335.443 99.2267 335.536 99.2613C335.628 99.2959 335.704 99.3651 335.746 99.4544L336.894 102.096C336.934 102.189 336.936 102.294 336.899 102.388C336.862 102.482 336.789 102.558 336.696 102.598ZM332.164 105.041C332.259 105.078 332.334 105.151 332.374 105.244C332.415 105.337 332.417 105.442 332.379 105.536C332.342 105.631 332.269 105.706 332.177 105.747C332.084 105.787 331.979 105.789 331.884 105.752L328.571 104.448C328.476 104.411 328.401 104.338 328.361 104.245C328.32 104.152 328.318 104.047 328.355 103.953L329.662 100.634C329.699 100.54 329.772 100.464 329.864 100.424C329.957 100.383 330.062 100.382 330.157 100.419C330.251 100.456 330.326 100.529 330.367 100.622C330.407 100.714 330.409 100.82 330.372 100.914L329.206 103.877L332.164 105.041Z" fill="#1C2E43"/>
<path d="M111.731 98.4681L107.055 94L111.731 89.5319L111.737 89.5262C111.862 89.4013 111.948 89.242 111.983 89.0686C112.017 88.8952 112 88.7155 111.932 88.5521C111.864 88.3887 111.75 88.249 111.602 88.1507C111.455 88.0524 111.282 88 111.105 88H101.895C101.718 88 101.545 88.0524 101.398 88.1506C101.251 88.2488 101.136 88.3883 101.068 88.5516C101 88.7149 100.983 88.8946 101.017 89.068C101.052 89.2413 101.137 89.4006 101.262 89.5255L101.268 89.5313L105.944 93.9994L101.269 98.4681L101.263 98.4738C101.138 98.5987 101.052 98.758 101.017 98.9314C100.983 99.1048 101 99.2845 101.068 99.4479C101.136 99.6113 101.25 99.751 101.398 99.8493C101.545 99.9476 101.718 100 101.895 100H111.105C111.282 100 111.455 99.9476 111.602 99.8494C111.749 99.7512 111.864 99.6117 111.932 99.4484C112 99.2851 112.017 99.1054 111.983 98.932C111.948 98.7587 111.863 98.5994 111.738 98.4745L111.731 98.4681ZM101.778 88.8445C101.787 88.8208 101.803 88.8005 101.824 88.7865C101.845 88.7724 101.87 88.7652 101.895 88.766H111.105C111.13 88.7659 111.154 88.7732 111.175 88.787C111.196 88.8007 111.212 88.8203 111.222 88.8433C111.232 88.8663 111.235 88.8916 111.231 88.9162C111.226 88.9408 111.215 88.9636 111.197 88.9817L106.5 93.4696L101.803 88.9817C101.785 88.9642 101.773 88.9416 101.769 88.9171C101.764 88.8926 101.767 88.8672 101.778 88.8445ZM111.222 99.1555C111.213 99.1792 111.197 99.1995 111.176 99.2135C111.155 99.2276 111.13 99.2348 111.105 99.234H101.895C101.87 99.2341 101.846 99.2268 101.825 99.213C101.804 99.1993 101.788 99.1797 101.778 99.1567C101.768 99.1337 101.765 99.1084 101.769 99.0838C101.774 99.0592 101.785 99.0364 101.803 99.0183L106.5 94.5304L111.197 99.0183C111.215 99.0358 111.227 99.0584 111.231 99.0829C111.236 99.1074 111.233 99.1328 111.222 99.1555Z" fill="#1C2E43"/>
<path d="M160.469 33.2753L154.21 31.6481L156.12 25.469L156.122 25.4612C156.171 25.291 156.168 25.1103 156.114 24.942C156.06 24.7736 155.957 24.6251 155.818 24.5153C155.68 24.4056 155.512 24.3394 155.335 24.3252C155.159 24.3111 154.982 24.3496 154.827 24.4358L146.782 28.918C146.627 29.0042 146.502 29.1342 146.421 29.2917C146.34 29.4491 146.308 29.6269 146.328 29.8025C146.348 29.9782 146.42 30.1438 146.535 30.2784C146.649 30.413 146.801 30.5106 146.972 30.5588L146.979 30.561L153.239 32.1882L151.33 38.3676L151.327 38.3754C151.279 38.5456 151.281 38.7263 151.336 38.8946C151.39 39.063 151.493 39.2115 151.631 39.3212C151.77 39.431 151.938 39.4972 152.115 39.5113C152.291 39.5255 152.468 39.487 152.623 39.4008L160.668 34.9186C160.822 34.8324 160.948 34.7024 161.029 34.5449C161.11 34.3875 161.142 34.2097 161.122 34.034C161.101 33.8584 161.029 33.6928 160.915 33.5582C160.8 33.4236 160.648 33.326 160.478 33.2778L160.469 33.2753ZM147.09 29.713C147.087 29.6879 147.091 29.6623 147.103 29.6398C147.114 29.6172 147.132 29.5988 147.155 29.5871L155.2 25.1049C155.222 25.0927 155.247 25.0872 155.272 25.089C155.297 25.0908 155.32 25.0999 155.34 25.1152C155.36 25.1305 155.375 25.1512 155.383 25.1749C155.391 25.1985 155.392 25.224 155.386 25.2483L153.467 31.4549L147.18 29.8204C147.155 29.8138 147.134 29.8 147.118 29.7807C147.102 29.7615 147.092 29.7379 147.09 29.713ZM160.359 34.1236C160.363 34.1487 160.359 34.1742 160.347 34.1968C160.336 34.2193 160.317 34.2378 160.295 34.2495L152.25 38.7317C152.228 38.7439 152.203 38.7494 152.178 38.7476C152.153 38.7458 152.129 38.7367 152.109 38.7214C152.09 38.7061 152.075 38.6854 152.067 38.6617C152.059 38.6381 152.058 38.6126 152.064 38.5883L153.983 32.3817L160.27 34.0162C160.294 34.0228 160.316 34.0366 160.332 34.0558C160.348 34.0751 160.357 34.0987 160.359 34.1236Z" fill="#1C2E43"/>
<path d="M267.469 155.275L261.21 153.648L263.12 147.469L263.122 147.461C263.171 147.291 263.168 147.11 263.114 146.942C263.06 146.774 262.957 146.625 262.818 146.515C262.68 146.406 262.512 146.339 262.335 146.325C262.159 146.311 261.982 146.35 261.827 146.436L253.782 150.918C253.627 151.004 253.502 151.134 253.421 151.292C253.34 151.449 253.308 151.627 253.328 151.802C253.348 151.978 253.42 152.144 253.535 152.278C253.649 152.413 253.801 152.511 253.972 152.559L253.979 152.561L260.239 154.188L258.33 160.368L258.327 160.375C258.279 160.545 258.281 160.726 258.336 160.895C258.39 161.063 258.493 161.211 258.631 161.321C258.77 161.431 258.938 161.497 259.115 161.511C259.291 161.525 259.468 161.487 259.623 161.401L267.668 156.919C267.822 156.832 267.948 156.702 268.029 156.545C268.11 156.387 268.142 156.21 268.122 156.034C268.101 155.858 268.029 155.693 267.915 155.558C267.8 155.424 267.648 155.326 267.478 155.278L267.469 155.275ZM254.09 151.713C254.087 151.688 254.091 151.662 254.103 151.64C254.114 151.617 254.132 151.599 254.155 151.587L262.2 147.105C262.222 147.093 262.247 147.087 262.272 147.089C262.297 147.091 262.32 147.1 262.34 147.115C262.36 147.13 262.375 147.151 262.383 147.175C262.391 147.198 262.392 147.224 262.386 147.248L260.467 153.455L254.18 151.82C254.155 151.814 254.134 151.8 254.118 151.781C254.102 151.761 254.092 151.738 254.09 151.713ZM267.359 156.124C267.363 156.149 267.359 156.174 267.347 156.197C267.336 156.219 267.317 156.238 267.295 156.249L259.25 160.732C259.228 160.744 259.203 160.749 259.178 160.748C259.153 160.746 259.129 160.737 259.109 160.721C259.09 160.706 259.075 160.685 259.067 160.662C259.059 160.638 259.058 160.612 259.064 160.588L260.983 154.382L267.27 156.016C267.294 156.023 267.316 156.037 267.332 156.056C267.348 156.075 267.357 156.099 267.359 156.124Z" fill="#1C2E43"/>
<path d="M286.547 35.671L283.832 29.8008L289.82 27.3558L289.827 27.3525C289.99 27.2822 290.127 27.1654 290.223 27.0167C290.319 26.8681 290.368 26.6943 290.365 26.5175C290.362 26.3406 290.306 26.1686 290.205 26.0232C290.104 25.8778 289.962 25.7656 289.798 25.7007L281.228 22.3279C281.063 22.2631 280.883 22.2484 280.71 22.2859C280.537 22.3233 280.379 22.4111 280.256 22.5383C280.134 22.6654 280.051 22.8261 280.02 23.0001C279.989 23.174 280.01 23.3534 280.08 23.5156L280.084 23.523L282.799 29.3933L276.811 31.8392L276.804 31.8424C276.641 31.9127 276.503 32.0295 276.408 32.1782C276.312 32.3268 276.262 32.5006 276.266 32.6774C276.269 32.8543 276.324 33.0263 276.425 33.1717C276.526 33.3171 276.668 33.4293 276.833 33.4942L285.403 36.867C285.567 36.9318 285.748 36.9465 285.921 36.909C286.094 36.8716 286.252 36.7838 286.374 36.6566C286.497 36.5295 286.58 36.3688 286.611 36.1948C286.642 36.0209 286.621 35.8415 286.55 35.6793L286.547 35.671ZM280.809 23.0706C280.826 23.0519 280.849 23.039 280.874 23.0336C280.899 23.0282 280.924 23.0307 280.948 23.0407L289.517 26.4135C289.54 26.4226 289.56 26.4384 289.575 26.4589C289.589 26.4793 289.597 26.5035 289.598 26.5285C289.599 26.5535 289.592 26.5782 289.579 26.5995C289.566 26.6207 289.547 26.6377 289.524 26.6482L283.51 29.1039L280.783 23.2077C280.773 23.1849 280.77 23.1595 280.775 23.135C280.779 23.1105 280.791 23.088 280.809 23.0706ZM285.821 36.1243C285.804 36.143 285.782 36.1559 285.757 36.1613C285.732 36.1667 285.706 36.1642 285.683 36.1542L277.114 32.7814C277.09 32.7723 277.07 32.7565 277.056 32.736C277.042 32.7156 277.033 32.6914 277.033 32.6664C277.032 32.6414 277.038 32.6167 277.052 32.5954C277.065 32.5742 277.084 32.5572 277.107 32.5467L283.121 30.091L285.848 35.9872C285.858 36.01 285.861 36.0354 285.856 36.0599C285.851 36.0844 285.839 36.1069 285.821 36.1243Z" fill="#1C2E43"/>
</svg>
